<?xml version="1.0" standalone="no"?>
<!DOCTYPE svg PUBLIC "-//W3C//DTD SVG 20010904//EN"
 "http://www.w3.org/TR/2001/REC-SVG-20010904/DTD/svg10.dtd">
<svg version="1.0" xmlns="http://www.w3.org/2000/svg"
 width="300.000000pt" height="252.000000pt" viewBox="0 0 300.000000 252.000000"
 preserveAspectRatio="xMidYMid meet">
<metadata>
Created by potrace 1.10, written by Peter Selinger 2001-2011
</metadata>
<g transform="translate(0.000000,252.000000) scale(0.100000,-0.100000)"
fill="#000000" stroke="none">
<path d="M130 2512 c0 -4 9 -8 19 -8 11 0 17 4 15 8 -3 4 -12 8 -20 8 -8 0
-14 -4 -14 -8z"/>
<path d="M463 2468 c8 -63 20 -79 44 -55 16 15 15 18 -5 35 -29 26 -19 32 42
25 58 -6 86 -26 86 -58 0 -33 25 -38 39 -9 6 13 19 24 28 23 10 0 13 -3 6 -5
-7 -3 -10 -11 -8 -17 3 -7 7 -25 9 -41 5 -30 16 -48 16 -27 0 7 5 9 10 6 16
-10 12 7 -7 27 -14 15 -15 23 -6 37 10 16 8 20 -13 30 -14 6 -36 8 -50 5 -15
-4 -24 -2 -24 5 0 7 -8 21 -19 32 -15 16 -23 18 -46 9 -33 -13 -55 -7 -55 15
0 10 -9 15 -26 15 -26 0 -27 -1 -21 -52z"/>
<path d="M620 2510 c0 -5 9 -10 20 -10 11 0 20 5 20 10 0 6 -9 10 -20 10 -11
0 -20 -4 -20 -10z"/>
<path d="M930 2505 c0 -8 4 -15 9 -15 5 0 11 7 15 15 3 9 0 15 -9 15 -8 0 -15
-7 -15 -15z"/>
<path d="M1004 2506 c-3 -8 -4 -23 -2 -33 3 -14 7 -11 20 15 14 27 14 32 2 32
-8 0 -17 -6 -20 -14z"/>
<path d="M1680 2516 c0 -9 37 -12 55 -5 15 6 11 8 -17 8 -21 1 -38 -1 -38 -3z"/>
<path d="M1933 2513 c9 -2 23 -2 30 0 6 3 -1 5 -18 5 -16 0 -22 -2 -12 -5z"/>
<path d="M2780 2505 c-7 -9 -10 -18 -7 -22 8 -7 37 15 37 28 0 14 -16 11 -30
-6z"/>
<path d="M2990 2440 c0 -47 -4 -80 -10 -80 -5 0 -10 -7 -10 -15 0 -8 5 -15 10
-15 7 0 10 -19 9 -45 -2 -25 -6 -45 -10 -45 -4 0 -6 -21 -4 -47 7 -77 10 -91
18 -99 4 -4 7 90 7 209 0 119 -2 217 -5 217 -3 0 -5 -36 -5 -80z"/>
<path d="M740 2500 c-12 -8 -12 -11 2 -27 8 -10 14 -26 13 -36 -2 -10 3 -21
11 -24 8 -3 14 -14 14 -25 0 -31 23 -15 25 17 0 19 -5 29 -17 33 -16 4 -16 5
0 22 9 10 26 20 37 23 17 4 17 5 -4 6 -13 0 -30 -7 -38 -16 -13 -16 -14 -16
-9 -1 6 22 -15 40 -34 28z"/>
<path d="M2253 2503 c-7 -3 -13 -11 -13 -19 0 -8 -6 -11 -16 -7 -12 4 -15 2
-12 -8 3 -8 12 -12 19 -10 8 2 31 3 51 2 20 0 40 4 44 11 4 7 3 8 -4 4 -7 -4
-12 -3 -12 2 0 12 -42 30 -57 25z"/>
<path d="M2540 2500 c0 -5 3 -10 8 -11 26 -3 46 -9 68 -24 29 -19 38 -16 28 9
-3 9 -17 16 -29 16 -13 0 -27 5 -30 10 -3 6 -15 10 -26 10 -10 0 -19 -4 -19
-10z"/>
<path d="M2833 2503 c9 -2 23 -2 30 0 6 3 -1 5 -18 5 -16 0 -22 -2 -12 -5z"/>
<path d="M312 2491 c-11 -7 -11 -9 2 -14 9 -4 16 -13 16 -22 0 -8 6 -15 14
-15 8 0 13 -8 12 -17 -3 -20 29 -47 44 -38 17 10 11 30 -15 53 -14 12 -25 28
-25 36 0 8 -7 17 -16 20 -19 7 -16 7 -32 -3z"/>
<path d="M1205 2481 c4 -15 -1 -24 -22 -35 l-28 -15 43 -1 c31 0 42 4 42 15 0
11 7 14 23 10 12 -3 28 -1 36 4 12 8 12 12 -2 25 -20 21 -34 20 -45 -1 -9 -16
-11 -16 -27 0 -22 22 -28 21 -20 -2z"/>
<path d="M1587 2480 c3 -11 10 -17 15 -14 5 3 18 -2 28 -11 18 -16 35 -8 22
11 -8 13 -46 34 -60 34 -6 0 -8 -9 -5 -20z"/>
<path d="M1846 2475 c5 -27 -29 -41 -47 -19 -10 12 -14 11 -24 -8 -14 -28 -3
-38 42 -36 20 1 33 6 33 15 0 7 4 13 9 13 5 0 14 13 19 29 9 26 8 29 -13 29
-19 0 -22 -5 -19 -23z"/>
<path d="M670 2480 c0 -5 5 -10 11 -10 5 0 7 5 4 10 -3 6 -8 10 -11 10 -2 0
-4 -4 -4 -10z"/>
<path d="M1974 2482 c-23 -16 -22 -40 3 -63 18 -17 27 -20 30 -11 3 6 17 12
31 12 26 1 26 1 -8 17 -32 15 -33 17 -12 20 24 5 31 23 8 23 -8 0 -20 2 -28 5
-7 3 -18 1 -24 -3z"/>
<path d="M65 2470 c4 -6 11 -8 16 -5 14 9 11 15 -7 15 -8 0 -12 -5 -9 -10z"/>
<path d="M168 2458 c-10 -10 -14 -18 -9 -18 6 0 13 5 16 10 4 6 10 8 15 5 5
-3 11 -1 14 4 11 18 -19 17 -36 -1z"/>
<path d="M851 2472 c-6 -2 -11 -19 -11 -38 0 -26 3 -32 15 -28 8 4 15 15 15
25 0 22 15 26 23 6 7 -19 -19 -50 -45 -51 -17 -1 -23 -7 -24 -24 -1 -20 2 -23
23 -17 20 5 24 2 21 -12 -4 -22 -57 -31 -69 -12 -4 8 -11 11 -14 7 -4 -3 2
-15 12 -26 10 -12 24 -28 31 -37 17 -20 36 -15 41 11 2 10 6 21 10 24 12 10
43 109 36 120 -3 5 1 13 9 16 9 3 16 14 16 24 0 15 -8 18 -39 17 -22 -1 -45
-3 -50 -5z"/>
<path d="M1030 2469 c0 -5 5 -7 10 -4 6 3 10 8 10 11 0 2 -4 4 -10 4 -5 0 -10
-5 -10 -11z"/>
<path d="M2503 2459 c-2 -16 3 -18 25 -13 15 4 34 10 42 15 13 7 13 9 0 10 -8
1 -26 3 -40 4 -20 3 -26 -1 -27 -16z"/>
<path d="M2701 2466 c-10 -11 -7 -14 14 -12 14 0 25 7 25 14 0 16 -25 15 -39
-2z"/>
<path d="M2833 2470 c-23 -9 -32 -40 -13 -40 6 0 10 -8 10 -17 1 -17 1 -17 11
0 5 9 7 22 4 27 -4 6 -1 9 6 8 7 -2 15 5 17 15 4 19 -2 20 -35 7z"/>
<path d="M2912 2454 c-8 -16 -9 -31 -3 -42 8 -15 11 -13 20 11 21 55 5 82 -17
31z"/>
<path d="M1337 2446 c-4 -10 -5 -21 -2 -24 9 -9 17 6 13 25 -3 17 -4 17 -11
-1z"/>
<path d="M246 2435 c4 -8 10 -15 15 -15 5 0 9 7 9 15 0 8 -7 15 -15 15 -9 0
-12 -6 -9 -15z"/>
<path d="M2700 2440 c-13 -8 -12 -10 3 -10 9 0 17 5 17 10 0 12 -1 12 -20 0z"/>
<path d="M2755 2440 c3 -5 11 -10 16 -10 6 0 7 5 4 10 -3 6 -11 10 -16 10 -6
0 -7 -4 -4 -10z"/>
<path d="M22 2428 c-8 -10 -2 -22 24 -48 40 -40 42 -37 11 19 -19 32 -26 39
-35 29z"/>
<path d="M1082 2411 c1 -30 20 -42 33 -21 4 6 10 8 15 5 4 -3 6 4 3 15 -3 11
-9 20 -13 20 -5 0 -15 3 -24 6 -11 4 -15 -2 -14 -25z"/>
<path d="M2440 2423 c0 -10 4 -24 9 -32 7 -11 10 -9 16 8 7 22 0 41 -16 41 -5
0 -9 -8 -9 -17z"/>
<path d="M100 2416 c0 -9 5 -16 10 -16 6 0 10 4 10 9 0 6 -4 13 -10 16 -5 3
-10 -1 -10 -9z"/>
<path d="M537 2404 c-21 -29 -22 -44 -1 -44 14 0 14 3 4 15 -10 12 -9 15 7 15
10 0 24 -5 31 -12 18 -18 27 -1 13 25 -16 30 -32 30 -54 1z"/>
<path d="M2345 2420 c3 -5 10 -10 16 -10 5 0 9 5 9 10 0 6 -7 10 -16 10 -8 0
-12 -4 -9 -10z"/>
<path d="M1386 2404 c-4 -9 -3 -20 0 -23 4 -3 9 0 11 7 3 6 14 12 26 12 18 0
19 2 7 10 -22 14 -37 12 -44 -6z"/>
<path d="M2097 2402 c-22 -24 -22 -42 1 -42 25 0 53 35 39 49 -15 15 -21 14
-40 -7z"/>
<path d="M2170 2405 c-11 -13 -8 -15 14 -15 16 0 26 5 26 15 0 8 -6 15 -14 15
-7 0 -19 -7 -26 -15z"/>
<path d="M2228 2398 c-22 -22 -23 -34 -3 -42 26 -10 42 3 37 30 -6 32 -13 35
-34 12z"/>
<path d="M2710 2400 c0 -10 9 -24 20 -30 11 -6 20 -19 20 -29 0 -22 25 -45 40
-36 18 11 11 30 -29 73 -44 47 -51 50 -51 22z"/>
<path d="M165 2392 c-33 -19 -45 -31 -45 -49 0 -7 7 -10 16 -6 13 5 13 7 2 14
-10 7 -9 9 4 9 9 0 18 5 20 11 2 5 10 11 18 12 15 2 25 15 18 22 -2 2 -17 -4
-33 -13z"/>
<path d="M976 2374 c-29 -37 -30 -78 -1 -54 13 11 38 80 32 86 -2 2 -15 -13
-31 -32z"/>
<path d="M253 2377 c-18 -6 -33 -15 -33 -19 0 -4 -6 -8 -14 -8 -15 0 -32 -37
-22 -47 3 -4 6 1 6 11 0 9 4 15 9 12 5 -4 24 6 42 21 18 16 35 27 38 25 3 -2
7 1 9 7 2 6 2 10 0 10 -1 -1 -18 -7 -35 -12z"/>
<path d="M1270 2380 c0 -5 5 -10 10 -10 6 0 10 5 10 10 0 6 -4 10 -10 10 -5 0
-10 -4 -10 -10z"/>
<path d="M2370 2375 c0 -8 -4 -15 -10 -15 -5 0 -10 -7 -10 -15 0 -20 10 -19
26 3 16 20 18 42 4 42 -5 0 -10 -7 -10 -15z"/>
<path d="M2495 2380 c-9 -14 1 -27 25 -33 25 -6 29 28 4 37 -21 8 -22 8 -29
-4z"/>
<path d="M1472 2368 c-18 -18 -15 -27 8 -21 11 3 20 12 20 19 0 17 -12 18 -28
2z"/>
<path d="M2303 2370 c-25 -10 -30 -26 -10 -33 18 -6 47 11 47 28 0 17 -6 18
-37 5z"/>
<path d="M2830 2369 c0 -5 5 -7 10 -4 6 3 10 8 10 11 0 2 -4 4 -10 4 -5 0 -10
-5 -10 -11z"/>
<path d="M471 2356 c-12 -15 -5 -46 11 -46 5 0 6 5 3 10 -3 6 -1 10 4 10 13 0
15 27 2 34 -5 3 -14 0 -20 -8z"/>
<path d="M1180 2347 c-19 -17 -24 -30 -22 -54 2 -18 8 -33 13 -33 6 0 7 9 4
21 -5 16 0 27 19 43 15 12 23 26 18 33 -5 8 -14 5 -32 -10z"/>
<path d="M1600 2356 c0 -9 5 -16 10 -16 6 0 10 4 10 9 0 6 -4 13 -10 16 -5 3
-10 -1 -10 -9z"/>
<path d="M2029 2353 c-13 -15 -12 -15 7 -5 12 6 24 8 28 5 3 -3 6 -1 6 5 0 18
-25 14 -41 -5z"/>
<path d="M620 2350 c0 -6 5 -10 10 -10 6 0 10 -9 10 -20 0 -17 6 -20 28 -18
24 3 27 0 25 -24 -1 -21 3 -28 17 -28 10 0 22 -5 25 -10 6 -10 35 11 35 24 0
14 -36 46 -51 46 -9 0 -22 6 -29 14 -6 8 -18 12 -26 9 -8 -3 -14 -1 -14 5 0 5
-7 12 -15 16 -8 3 -15 1 -15 -4z"/>
<path d="M1063 2349 c1 -7 -14 -16 -32 -21 -19 -5 -40 -17 -47 -26 -9 -13 -15
-14 -26 -4 -19 16 -29 5 -22 -24 4 -15 2 -24 -5 -24 -6 0 -11 -7 -11 -15 0
-19 10 -19 38 1 12 8 26 13 31 10 5 -3 9 6 9 20 0 28 12 40 52 51 27 7 42 22
34 35 -8 12 -24 10 -21 -3z"/>
<path d="M1721 2347 c-17 -17 -13 -26 11 -22 32 7 43 21 20 28 -11 2 -25 0
-31 -6z"/>
<path d="M540 2330 c0 -16 7 -20 35 -20 40 0 49 24 13 34 -38 10 -48 7 -48
-14z"/>
<path d="M1862 2339 c2 -6 8 -10 13 -10 5 0 11 4 13 10 2 6 -4 11 -13 11 -9 0
-15 -5 -13 -11z"/>
<path d="M1635 2330 c-3 -5 1 -10 9 -10 9 0 16 5 16 10 0 6 -4 10 -9 10 -6 0
-13 -4 -16 -10z"/>
<path d="M1912 2328 c6 -18 25 -20 31 -3 5 10 0 15 -14 15 -12 0 -19 -5 -17
-12z"/>
<path d="M1250 2320 c0 -5 12 -10 26 -10 14 0 23 4 19 10 -3 6 -15 10 -26 10
-10 0 -19 -4 -19 -10z"/>
<path d="M1580 2316 c0 -9 7 -12 20 -9 11 3 17 9 14 14 -8 14 -34 10 -34 -5z"/>
<path d="M2056 2315 c-10 -8 -23 -12 -28 -8 -6 3 -5 -4 2 -16 l11 -22 20 22
c10 12 19 26 19 31 0 10 -1 10 -24 -7z"/>
<path d="M2210 2320 c-22 -7 -20 -8 12 -7 20 1 34 5 31 10 -5 8 -9 8 -43 -3z"/>
<path d="M2423 2315 c-3 -9 -3 -19 1 -22 3 -4 6 1 6 11 0 9 5 14 10 11 6 -3
10 -1 10 4 0 17 -20 13 -27 -4z"/>
<path d="M2540 2308 c0 -18 21 -16 48 5 9 7 12 0 12 -32 0 -22 5 -41 10 -41
10 0 14 13 11 41 -2 17 26 29 67 29 12 0 22 4 22 10 0 6 -34 9 -85 7 -73 -2
-85 -4 -85 -19z"/>
<path d="M265 2306 c-19 -14 -19 -15 13 -29 34 -14 82 -12 82 4 0 5 -13 9 -30
9 -16 0 -33 7 -37 15 -8 13 -11 13 -28 1z"/>
<path d="M7 2303 c-4 -3 -7 -15 -7 -27 0 -20 0 -20 15 0 8 10 15 22 15 27 0 9
-14 9 -23 0z"/>
<path d="M1517 2303 c-12 -11 -8 -21 12 -26 14 -3 17 0 14 14 -5 20 -15 24
-26 12z"/>
<path d="M2104 2286 c-3 -14 -3 -30 1 -35 3 -7 -3 -11 -17 -12 -22 0 -22 -1
-3 -9 26 -11 35 -12 33 -2 -3 12 13 52 21 52 4 0 8 7 8 15 0 25 -36 17 -43 -9z"/>
<path d="M2890 2287 c-16 -25 -17 -28 -19 -60 -1 -19 -7 -22 -41 -23 -22 -1
-40 3 -40 8 0 5 -4 6 -10 3 -5 -3 -10 1 -10 9 0 20 -14 21 -29 2 -9 -11 -9
-15 1 -19 10 -4 10 -7 -1 -15 -9 -7 7 -9 53 -6 52 4 66 2 66 -9 0 -8 -7 -20
-15 -27 -12 -10 -13 -16 -4 -26 7 -8 7 -14 2 -14 -11 0 -9 -47 1 -58 4 -3 11
-1 17 5 8 8 8 13 0 17 -7 5 -6 15 5 32 9 13 17 46 17 74 0 28 4 50 7 50 12 0
27 45 21 62 -6 16 -8 16 -21 -5z"/>
<path d="M1444 2283 c1 -10 7 -27 11 -37 6 -13 4 -21 -3 -24 -7 -2 -12 -8 -12
-12 0 -5 14 -4 30 1 31 11 42 39 15 39 -9 0 -15 9 -15 25 0 16 -6 25 -15 25
-9 0 -13 -7 -11 -17z"/>
<path d="M1761 2291 c-16 -10 -8 -26 19 -41 16 -9 19 -6 18 20 -1 30 -12 37
-37 21z"/>
<path d="M1821 2290 c11 -7 15 -18 11 -37 -5 -27 -4 -28 15 -10 11 9 26 17 33
17 8 0 -3 9 -25 20 -40 20 -63 27 -34 10z"/>
<path d="M1090 2279 c0 -6 -6 -9 -14 -6 -29 11 -24 -7 7 -23 36 -20 52 -13 42
19 -7 22 -35 30 -35 10z"/>
<path d="M1375 2281 c-3 -6 -15 -11 -26 -11 -12 0 -19 -7 -19 -20 0 -13 7 -20
20 -20 13 0 20 7 20 19 0 11 6 21 13 24 6 2 9 7 6 11 -4 4 -10 3 -14 -3z"/>
<path d="M2807 2276 c-13 -10 -15 -15 -5 -19 19 -6 38 3 38 19 0 17 -10 17
-33 0z"/>
<path d="M547 2269 c-38 -4 -75 -10 -83 -13 -8 -3 -14 -1 -14 5 0 6 -5 7 -11
4 -23 -15 7 -20 111 -20 104 0 108 1 90 18 -11 9 -20 16 -22 16 -2 -1 -34 -5
-71 -10z"/>
<path d="M1634 2265 c-7 -18 3 -35 23 -35 10 0 13 6 9 16 -3 9 -6 20 -6 25 0
15 -20 10 -26 -6z"/>
<path d="M1925 2270 c-3 -6 1 -7 9 -4 18 7 21 14 7 14 -6 0 -13 -4 -16 -10z"/>
<path d="M380 2260 c7 -4 10 -12 7 -17 -3 -5 3 -10 14 -10 12 -1 19 5 19 16 0
13 -8 19 -26 19 -16 0 -21 -3 -14 -8z"/>
<path d="M1230 2266 c0 -2 7 -6 15 -10 8 -3 15 -1 15 4 0 6 -7 10 -15 10 -8 0
-15 -2 -15 -4z"/>
<path d="M2246 2255 c4 -8 7 -15 9 -15 2 0 5 7 9 15 3 9 0 15 -9 15 -9 0 -12
-6 -9 -15z"/>
<path d="M2355 2260 c-4 -6 -10 -8 -15 -5 -13 8 -61 -6 -55 -15 3 -5 -2 -15
-10 -23 -18 -18 -19 -27 -5 -27 6 0 21 11 34 25 13 14 33 25 45 25 12 0 21 6
21 15 0 17 -6 19 -15 5z"/>
<path d="M148 2253 c-10 -2 -18 -8 -18 -13 0 -4 9 -6 20 -3 11 3 20 9 20 14 0
5 -1 8 -2 8 -2 -1 -11 -3 -20 -6z"/>
<path d="M2500 2250 c20 -13 33 -13 25 0 -3 6 -14 10 -23 10 -15 0 -15 -2 -2
-10z"/>
<path d="M790 2242 c1 -4 7 -18 14 -30 11 -20 10 -29 -7 -63 -22 -46 -16 -88
9 -55 8 11 14 27 14 35 0 9 9 31 21 50 11 18 17 37 12 40 -15 13 -63 31 -63
23z"/>
<path d="M1012 2239 c2 -7 10 -15 17 -17 8 -3 12 1 9 9 -2 7 -10 15 -17 17 -8
3 -12 -1 -9 -9z"/>
<path d="M2014 2234 c9 -8 20 -12 26 -9 15 9 2 25 -21 25 -19 0 -19 -1 -5 -16z"/>
<path d="M2178 2223 c-2 -20 -9 -28 -23 -28 -11 0 -21 -8 -23 -17 -2 -11 3
-18 13 -18 9 0 14 4 10 9 -3 5 3 12 12 15 22 7 46 43 38 56 -11 18 -24 10 -27
-17z"/>
<path d="M2425 2241 c-13 -12 -3 -31 16 -31 14 0 19 5 16 14 -3 8 -1 17 6 19
7 3 2 4 -11 4 -13 -1 -25 -3 -27 -6z"/>
<path d="M1288 2228 c-7 -57 -5 -65 14 -60 27 7 33 22 8 22 -17 0 -19 4 -14
25 3 14 3 25 0 25 -3 0 -7 -6 -8 -12z"/>
<path d="M1562 2228 c-18 -18 -14 -38 8 -38 21 0 23 4 12 33 -6 14 -10 15 -20
5z"/>
<path d="M1681 2226 c-9 -11 -7 -15 11 -19 27 -7 30 -5 22 17 -8 20 -18 20
-33 2z"/>
<path d="M958 2223 c-25 -6 -22 -33 3 -33 11 0 33 -9 47 -21 20 -15 28 -17 30
-7 3 7 14 21 26 30 11 9 17 20 13 25 -5 4 -13 0 -18 -10 -14 -24 -48 -21 -59
6 -7 17 -9 18 -9 5 -1 -10 -6 -18 -12 -18 -6 0 -9 7 -5 15 3 8 4 14 3 14 -1
-1 -10 -3 -19 -6z"/>
<path d="M1180 2220 c0 -5 5 -10 11 -10 5 0 7 5 4 10 -3 6 -8 10 -11 10 -2 0
-4 -4 -4 -10z"/>
<path d="M1750 2215 c0 -8 5 -15 10 -15 6 0 10 7 10 15 0 8 -4 15 -10 15 -5 0
-10 -7 -10 -15z"/>
<path d="M1902 2221 c-10 -6 -8 -9 10 -13 28 -5 48 0 48 13 0 11 -40 12 -58 0z"/>
<path d="M201 2207 c-19 -19 -12 -36 16 -39 19 -2 27 -9 28 -25 2 -30 6 -32
33 -22 27 10 28 26 2 34 -11 3 -20 12 -20 18 0 7 -11 20 -24 29 -17 13 -26 14
-35 5z"/>
<path d="M604 2203 c4 -9 1 -20 -6 -25 -10 -6 -8 -8 5 -8 9 0 17 4 17 9 0 5 3
16 6 25 4 11 1 16 -11 16 -12 0 -15 -5 -11 -17z"/>
<path d="M10 2205 c0 -2 9 -9 20 -15 16 -9 18 -8 14 5 -5 13 -34 22 -34 10z"/>
<path d="M521 2197 c-6 -8 -8 -17 -4 -20 7 -8 33 11 33 24 0 13 -16 11 -29 -4z"/>
<path d="M696 2187 c-6 -21 -4 -33 8 -45 10 -10 16 -12 16 -4 0 7 11 12 25 12
18 0 25 5 25 20 0 17 -3 19 -19 10 -29 -15 -39 -12 -44 13 -3 20 -4 20 -11 -6z"/>
<path d="M888 2185 c-10 -13 -18 -30 -18 -37 0 -8 -9 -31 -20 -53 -11 -22 -20
-48 -20 -59 0 -11 -7 -27 -16 -37 -10 -11 -14 -25 -10 -36 6 -15 10 -13 28 15
11 17 23 32 26 32 4 0 7 16 8 36 0 20 7 42 15 48 8 6 13 19 11 30 -2 10 1 29
8 41 18 33 8 47 -12 20z"/>
<path d="M1387 2190 c-3 -11 -1 -20 4 -20 5 0 9 9 9 20 0 11 -2 20 -4 20 -2 0
-6 -9 -9 -20z"/>
<path d="M1860 2200 c0 -5 7 -10 16 -10 8 0 12 5 9 10 -3 6 -10 10 -16 10 -5
0 -9 -4 -9 -10z"/>
<path d="M2022 2190 c-16 -26 -15 -37 3 -37 17 0 31 35 18 48 -5 5 -14 0 -21
-11z"/>
<path d="M2110 2200 c0 -5 5 -10 10 -10 6 0 10 5 10 10 0 6 -4 10 -10 10 -5 0
-10 -4 -10 -10z"/>
<path d="M2551 2184 c-37 -25 -51 -42 -51 -62 0 -9 9 -7 30 8 16 12 29 26 27
32 -1 6 8 14 20 17 14 4 20 11 15 17 -5 8 -17 5 -41 -12z"/>
<path d="M1110 2176 c-6 -16 -20 -36 -33 -47 -22 -18 -22 -18 41 -19 35 0 72
-5 83 -11 12 -6 28 -8 37 -4 28 10 -38 43 -76 37 -33 -4 -41 5 -20 26 10 10 8
16 -5 29 -15 15 -17 15 -27 -11z"/>
<path d="M1211 2181 c-18 -16 -19 -20 -5 -25 19 -7 64 -8 64 -1 0 3 -8 15 -18
26 -18 19 -19 19 -41 0z"/>
<path d="M170 2184 c0 -7 -9 -14 -20 -17 -23 -6 -27 -27 -6 -27 8 0 17 -6 19
-12 4 -8 6 -7 6 4 1 9 6 18 13 20 8 3 8 9 0 24 -6 10 -12 14 -12 8z"/>
<path d="M1517 2184 c-14 -14 -7 -25 13 -22 12 2 21 8 21 13 0 12 -24 18 -34
9z"/>
<path d="M2356 2181 c-3 -5 1 -12 10 -15 25 -10 34 -7 34 9 0 16 -35 21 -44 6z"/>
<path d="M2623 2182 c-7 -4 -9 -12 -5 -18 5 -7 14 -5 26 7 14 14 16 19 5 19
-8 0 -19 -4 -26 -8z"/>
<path d="M1662 2171 c4 -13 18 -16 19 -4 0 4 -5 9 -11 12 -7 2 -11 -2 -8 -8z"/>
<path d="M1764 2172 c-17 -11 -13 -42 7 -42 18 0 33 26 23 41 -6 11 -15 11
-30 1z"/>
<path d="M330 2160 c0 -5 5 -10 10 -10 6 0 10 5 10 10 0 6 -4 10 -10 10 -5 0
-10 -4 -10 -10z"/>
<path d="M1433 2160 c-13 -5 -23 -16 -23 -25 0 -19 14 -19 34 1 13 13 22 36
14 33 -2 0 -13 -4 -25 -9z"/>
<path d="M2197 2163 c-4 -3 -7 -11 -7 -17 0 -6 5 -5 12 2 6 6 9 14 7 17 -3 3
-9 2 -12 -2z"/>
<path d="M2431 2157 c-6 -6 -11 -15 -11 -19 0 -13 27 -9 39 6 15 18 -11 30
-28 13z"/>
<path d="M1349 2143 c-14 -16 -46 -17 -52 0 -3 6 -6 3 -6 -8 -1 -12 -6 -26
-13 -33 -17 -17 -2 -26 45 -28 23 -1 53 -6 67 -12 30 -12 40 -7 40 18 0 27
-16 33 -49 17 -25 -12 -32 -12 -57 2 l-29 16 31 3 c34 3 78 39 49 39 -8 0 -20
-6 -26 -14z"/>
<path d="M1575 2152 c-10 -10 7 -22 31 -22 20 0 24 -5 24 -31 l0 -32 21 27
c16 20 18 30 10 40 -11 13 -77 27 -86 18z"/>
<path d="M2676 2151 c-11 -4 -15 -10 -10 -14 14 -8 55 3 48 14 -6 10 -12 10
-38 0z"/>
<path d="M361 2143 c-1 -16 27 -43 44 -43 9 0 12 6 9 15 -4 8 -14 15 -24 15
-10 0 -21 6 -23 13 -4 8 -6 9 -6 0z"/>
<path d="M1881 2136 c-8 -9 -8 -16 -2 -20 6 -4 15 3 21 14 12 23 -2 27 -19 6z"/>
<path d="M1002 2117 c-25 -15 -30 -22 -22 -32 8 -10 7 -14 -2 -18 -7 -2 -10
-7 -7 -11 4 -4 13 0 20 9 8 9 22 24 33 35 28 28 15 39 -22 17z"/>
<path d="M2585 2130 c-3 -5 -3 -10 2 -10 4 0 1 -5 -7 -10 -13 -8 -12 -10 3
-10 10 0 17 -8 17 -20 0 -24 3 -24 40 -5 18 9 30 24 30 35 0 20 -15 28 -22 11
-1 -5 -12 -11 -23 -13 -14 -2 -19 2 -17 15 3 18 -13 23 -23 7z"/>
<path d="M97 2123 c-4 -3 -7 -11 -7 -17 0 -6 5 -5 12 2 6 6 9 14 7 17 -3 3 -9
2 -12 -2z"/>
<path d="M1491 2106 c-18 -19 -21 -28 -12 -43 6 -10 11 -13 12 -5 1 6 2 17 3
22 0 6 7 15 15 19 7 5 12 14 10 20 -3 8 -13 3 -28 -13z"/>
<path d="M1716 2103 c4 -16 10 -32 15 -37 11 -12 -16 -62 -38 -70 -11 -4 -22
-1 -29 8 -6 9 -25 16 -43 16 -26 0 -31 -4 -31 -25 0 -26 18 -33 37 -14 8 8 19
7 40 -4 15 -8 40 -20 56 -27 15 -8 27 -22 27 -32 0 -20 34 -25 60 -8 13 8 12
10 -1 15 -9 3 -22 5 -30 3 -8 -2 -13 3 -12 9 2 7 -10 19 -27 28 -32 17 -32 45
1 45 16 0 18 5 13 25 -4 17 -2 25 7 25 9 1 7 6 -6 18 -11 9 -19 25 -17 35 2
10 -3 17 -12 17 -13 0 -15 -6 -10 -27z"/>
<path d="M1835 2111 c-3 -5 -1 -12 5 -16 5 -3 10 1 10 9 0 18 -6 21 -15 7z"/>
<path d="M2081 2108 c2 -27 14 -59 23 -61 5 -1 11 15 12 36 3 31 0 37 -16 37
-11 0 -20 -6 -19 -12z"/>
<path d="M2958 2085 c-6 -47 -6 -46 11 -35 11 6 12 16 4 42 l-10 33 -5 -40z"/>
<path d="M2 2084 c-1 -18 3 -24 17 -24 14 0 21 -8 23 -27 4 -35 22 -33 25 2 1
14 -2 23 -6 20 -5 -2 -11 5 -14 16 -4 15 -11 20 -22 15 -9 -3 -13 -2 -10 3 3
5 2 12 -3 15 -4 2 -9 -6 -10 -20z"/>
<path d="M162 2098 c3 -7 13 -15 22 -16 12 -3 17 1 14 10 -3 7 -13 15 -22 16
-12 3 -17 -1 -14 -10z"/>
<path d="M526 2095 c4 -8 7 -15 9 -15 2 0 5 7 9 15 3 9 0 15 -9 15 -9 0 -12
-6 -9 -15z"/>
<path d="M907 2103 c-12 -11 -8 -43 6 -43 7 0 4 -7 -7 -15 -19 -14 -18 -15 12
-15 31 0 42 13 22 25 -5 3 -10 17 -10 31 0 23 -10 31 -23 17z"/>
<path d="M2000 2095 c0 -8 7 -15 15 -15 8 0 15 7 15 15 0 8 -7 15 -15 15 -8 0
-15 -7 -15 -15z"/>
<path d="M2390 2099 c0 -5 5 -7 10 -4 6 3 10 8 10 11 0 2 -4 4 -10 4 -5 0 -10
-5 -10 -11z"/>
<path d="M2708 2103 c-31 -5 -32 -7 -18 -33 7 -13 6 -19 -5 -24 -24 -9 -17
-26 11 -26 21 0 24 3 19 21 -5 14 0 28 16 45 12 13 18 23 13 23 -5 -1 -21 -4
-36 -6z"/>
<path d="M1540 2090 c0 -5 5 -10 11 -10 5 0 8 -4 5 -9 -3 -5 1 -11 8 -14 17
-7 40 18 31 33 -8 13 -55 13 -55 0z"/>
<path d="M2772 2088 c5 -15 28 -23 28 -10 0 5 -7 13 -16 16 -10 4 -14 1 -12
-6z"/>
<path d="M340 2066 c0 -15 -11 -33 -27 -46 -27 -21 -27 -22 -9 -36 11 -8 23
-14 28 -14 4 0 8 -7 8 -15 0 -8 7 -15 15 -15 8 0 15 5 15 10 0 6 -4 10 -10 10
-5 0 -14 9 -20 21 -14 26 2 49 30 42 11 -3 27 0 35 7 12 10 18 10 30 0 12 -10
15 -10 15 4 0 18 -8 20 -63 17 -29 -2 -36 0 -31 12 3 8 1 18 -5 22 -7 4 -11
-4 -11 -19z"/>
<path d="M625 2058 c-14 -21 -17 -21 -28 -7 -9 12 -15 13 -22 5 -34 -40 -40
-82 -7 -50 11 11 26 14 52 10 24 -4 43 -1 56 9 18 14 18 14 -5 15 -18 0 -22 4
-18 20 7 27 -8 25 -28 -2z"/>
<path d="M2160 2076 c0 -2 8 -10 18 -17 15 -13 16 -12 3 4 -13 16 -21 21 -21
13z"/>
<path d="M105 2050 c-3 -5 1 -10 9 -10 9 0 16 -4 16 -10 0 -5 6 -10 14 -10 8
0 16 -16 20 -42 4 -23 11 -47 17 -54 7 -9 4 -14 -10 -19 -12 -3 -21 -12 -21
-20 0 -18 -25 -26 -39 -12 -8 8 -11 8 -11 -1 0 -12 6 -14 35 -14 29 0 35 2 35
15 0 7 9 18 21 25 17 11 20 21 16 55 -8 70 -17 83 -56 78 -7 -2 -10 2 -7 7 3
6 -1 13 -10 16 -21 8 -22 8 -29 -4z"/>
<path d="M698 2048 c7 -7 12 -21 12 -31 0 -13 5 -17 16 -13 9 3 27 6 40 6 17
0 24 6 24 19 0 17 -5 19 -40 15 -24 -3 -40 -1 -40 6 0 5 -5 10 -12 10 -9 0 -9
-3 0 -12z"/>
<path d="M1788 2053 c7 -3 16 -2 19 1 4 3 -2 6 -13 5 -11 0 -14 -3 -6 -6z"/>
<path d="M1864 2044 c3 -8 6 -18 6 -20 0 -3 5 -2 10 1 15 9 12 22 -6 29 -12 5
-15 2 -10 -10z"/>
<path d="M1955 2049 c-11 -17 -2 -18 25 -4 24 14 24 14 3 15 -12 0 -25 -5 -28
-11z"/>
<path d="M2420 2045 c-6 -8 -9 -18 -7 -22 3 -5 -1 -17 -9 -28 -8 -10 -14 -15
-14 -9 0 5 -4 2 -9 -5 -6 -9 -6 -22 0 -33 15 -27 32 -22 25 7 -5 20 -2 27 19
37 27 12 32 23 13 32 -10 5 -10 7 0 12 14 6 16 24 3 24 -5 0 -14 -7 -21 -15z"/>
<path d="M485 2040 c3 -5 11 -10 16 -10 6 0 7 5 4 10 -3 6 -11 10 -16 10 -6 0
-7 -4 -4 -10z"/>
<path d="M2033 2043 c-7 -2 -13 -9 -13 -15 0 -6 7 -8 15 -4 9 3 15 0 15 -10 0
-8 4 -13 9 -10 10 6 3 47 -8 45 -3 0 -12 -3 -18 -6z"/>
<path d="M2790 2036 c0 -27 12 -46 30 -46 10 0 20 -4 22 -10 2 -6 9 -6 18 0
12 8 9 15 -20 39 -39 34 -50 37 -50 17z"/>
<path d="M2992 2030 c0 -14 2 -19 5 -12 2 6 2 18 0 25 -3 6 -5 1 -5 -13z"/>
<path d="M1500 2031 c0 -5 -6 -8 -12 -7 -25 2 -21 -19 5 -28 21 -8 31 -6 45 7
15 16 15 19 2 27 -19 12 -40 13 -40 1z"/>
<path d="M2273 2021 c-10 -16 -9 -20 3 -25 23 -9 24 -8 24 19 0 30 -11 32 -27
6z"/>
<path d="M2368 2033 c7 -3 16 -2 19 1 4 3 -2 6 -13 5 -11 0 -14 -3 -6 -6z"/>
<path d="M2565 2030 c3 -5 8 -10 11 -10 2 0 4 5 4 10 0 6 -5 10 -11 10 -5 0
-7 -4 -4 -10z"/>
<path d="M2725 2020 c-8 -13 4 -32 16 -25 12 8 12 35 0 35 -6 0 -13 -4 -16
-10z"/>
<path d="M1792 1987 c2 -25 7 -31 22 -29 11 2 15 -1 11 -7 -4 -7 3 -11 17 -11
15 0 27 9 35 26 10 22 10 25 -3 20 -9 -3 -18 -6 -20 -6 -3 0 -2 -4 1 -10 3 -5
1 -10 -4 -10 -6 0 -11 8 -11 18 0 9 -12 22 -26 29 -24 11 -25 11 -22 -20z"/>
<path d="M2520 2005 c0 -8 5 -15 10 -15 6 0 10 7 10 15 0 8 -4 15 -10 15 -5 0
-10 -7 -10 -15z"/>
<path d="M2918 1998 c-8 -19 5 -68 14 -52 2 5 2 23 -2 39 -4 24 -7 26 -12 13z"/>
<path d="M435 1989 c-10 -15 3 -25 16 -12 7 7 7 13 1 17 -6 3 -14 1 -17 -5z"/>
<path d="M530 1980 c6 -11 8 -20 4 -20 -3 0 -1 -7 6 -14 8 -11 18 -12 36 -5
16 6 32 5 44 -1 13 -7 29 -5 55 5 20 9 40 13 44 10 16 -9 19 -44 4 -56 -11
-10 -11 -14 -1 -20 10 -7 6 -15 -14 -32 -16 -14 -28 -31 -28 -39 0 -9 -7 -21
-15 -28 -8 -7 -13 -24 -11 -41 4 -41 14 -47 21 -13 4 16 8 34 10 39 1 6 3 14
3 19 0 5 7 13 16 18 9 5 14 14 10 19 -3 6 2 20 12 32 32 37 42 62 37 90 -3 15
-11 27 -18 27 -7 0 -15 4 -17 10 -2 6 -20 5 -48 -1 -59 -14 -110 -18 -110 -9
0 4 -11 12 -25 18 -24 11 -25 10 -15 -8z"/>
<path d="M2960 1990 c-8 -5 -11 -12 -7 -16 4 -4 13 -2 19 4 15 15 7 24 -12 12z"/>
<path d="M1973 1983 c-23 -9 -14 -20 15 -18 58 4 59 4 42 15 -16 10 -37 12
-57 3z"/>
<path d="M2100 1980 c-13 -8 -12 -11 5 -24 11 -9 24 -16 28 -16 5 0 5 -4 2
-10 -3 -6 1 -7 9 -4 17 7 22 24 7 24 -5 0 -13 9 -16 20 -7 22 -13 24 -35 10z"/>
<path d="M2617 1983 c-12 -11 -8 -23 8 -23 8 0 15 7 15 15 0 16 -12 20 -23 8z"/>
<path d="M5 1970 c4 -6 10 -8 15 -5 4 3 11 -1 13 -7 3 -8 6 -6 6 5 1 11 -6 17
-20 17 -11 0 -17 -5 -14 -10z"/>
<path d="M2337 1960 c-3 -13 0 -20 9 -20 8 0 14 9 14 20 0 11 -4 20 -9 20 -5
0 -11 -9 -14 -20z"/>
<path d="M2667 1935 c-28 -26 -47 -52 -47 -65 0 -28 24 -21 28 8 2 12 10 22
17 22 8 0 19 9 25 20 6 11 17 20 25 20 17 0 19 9 7 27 -5 9 -22 -1 -55 -32z"/>
<path d="M264 1933 c-10 -21 -26 -48 -37 -60 -11 -13 -18 -26 -14 -29 10 -10
34 14 41 39 3 12 15 27 28 32 27 12 38 55 14 55 -8 0 -23 -17 -32 -37z"/>
<path d="M388 1965 c-2 -2 -2 -20 0 -40 3 -27 9 -35 25 -35 19 0 19 1 3 19 -9
10 -14 25 -11 34 6 14 -7 32 -17 22z"/>
<path d="M2978 1956 c-10 -7 -18 -18 -18 -23 0 -6 -7 -16 -15 -23 -12 -10 -15
-10 -15 0 0 8 -3 10 -6 7 -4 -4 -1 -13 5 -21 12 -14 13 -80 3 -100 -3 -5 -6
-34 -8 -65 -4 -76 -9 -94 -24 -99 -9 -3 -11 4 -8 27 2 17 1 31 -4 31 -4 0 -8
-15 -8 -34 0 -19 -6 -36 -12 -39 -27 -9 -1 -14 42 -8 44 6 45 7 46 42 1 20 5
49 9 65 13 48 14 54 3 48 -7 -5 -9 2 -6 19 4 18 0 27 -11 30 -13 4 -13 5 2 6
19 1 19 1 23 49 1 22 -1 30 -9 25 -7 -3 -4 3 6 14 10 11 19 30 22 42 5 25 5
24 -17 7z"/>
<path d="M2231 1951 c-8 -6 -9 -11 -3 -15 6 -3 14 -1 17 5 9 14 2 20 -14 10z"/>
<path d="M2533 1952 c-18 -2 -33 -8 -33 -14 0 -5 6 -8 13 -5 8 3 28 -2 46 -10
38 -19 53 -10 25 15 -12 11 -31 16 -51 14z"/>
<path d="M97 1939 c7 -7 15 -10 18 -7 3 3 -2 9 -12 12 -14 6 -15 5 -6 -5z"/>
<path d="M447 1923 c-5 -28 -5 -28 21 1 19 23 19 25 2 23 -11 -1 -20 -11 -23
-24z"/>
<path d="M1640 1941 c0 -6 5 -13 10 -16 6 -3 10 1 10 9 0 9 -4 16 -10 16 -5 0
-10 -4 -10 -9z"/>
<path d="M1885 1930 c-3 -5 1 -10 10 -10 9 0 13 5 10 10 -3 6 -8 10 -10 10 -2
0 -7 -4 -10 -10z"/>
<path d="M2750 1925 c0 -8 7 -15 15 -15 8 0 15 4 15 9 0 5 -7 11 -15 15 -9 3
-15 0 -15 -9z"/>
<path d="M1946 1903 c7 -26 6 -27 -10 -13 -21 17 -46 22 -46 9 0 -5 5 -9 10
-9 6 0 14 -9 18 -19 7 -19 8 -19 29 -2 21 18 23 61 2 61 -5 0 -6 -12 -3 -27z"/>
<path d="M2802 1923 c-17 -7 -5 -23 18 -23 10 0 21 -6 24 -12 2 -7 3 -2 2 12
-3 25 -19 34 -44 23z"/>
<path d="M42 1905 c-11 -13 -10 -15 6 -15 10 0 19 7 19 15 0 19 -8 19 -25 0z"/>
<path d="M2450 1900 c0 -28 17 -34 30 -10 6 11 9 20 8 21 -29 8 -38 5 -38 -11z"/>
<path d="M535 1890 c4 -6 11 -8 16 -5 14 9 11 15 -7 15 -8 0 -12 -5 -9 -10z"/>
<path d="M660 1890 c0 -5 7 -7 15 -4 8 4 15 8 15 10 0 2 -7 4 -15 4 -8 0 -15
-4 -15 -10z"/>
<path d="M1644 1877 c1 -17 8 -23 34 -25 28 -3 32 0 32 20 0 19 -6 23 -34 25
-28 1 -33 -2 -32 -20z"/>
<path d="M2051 1891 c-7 -5 -9 -11 -4 -14 4 -3 17 1 28 9 21 16 0 20 -24 5z"/>
<path d="M347 1876 c-12 -10 -15 -16 -7 -21 6 -4 9 -13 6 -21 -3 -8 1 -14 9
-14 10 0 15 11 15 35 0 40 1 39 -23 21z"/>
<path d="M455 1880 c-4 -6 5 -10 19 -10 14 0 26 5 26 10 0 6 -9 10 -19 10 -11
0 -23 -4 -26 -10z"/>
<path d="M2544 1875 c-4 -8 -15 -15 -25 -15 -29 0 -23 -17 8 -23 28 -5 52 14
53 41 0 17 -29 15 -36 -3z"/>
<path d="M2713 1869 c-26 -10 -29 -22 -9 -38 10 -9 17 -6 30 13 18 29 11 37
-21 25z"/>
<path d="M291 1848 c-9 -25 -4 -48 10 -48 4 0 6 6 3 14 -3 8 -1 17 5 21 14 8
14 35 1 35 -6 0 -14 -10 -19 -22z"/>
<path d="M1505 1860 c-4 -6 -3 -16 3 -22 6 -6 12 -6 17 2 4 6 3 16 -3 22 -6 6
-12 6 -17 -2z"/>
<path d="M2000 1860 c0 -5 5 -10 11 -10 5 0 7 5 4 10 -3 6 -8 10 -11 10 -2 0
-4 -4 -4 -10z"/>
<path d="M2100 1861 c0 -11 48 -24 61 -16 5 4 7 11 4 16 -8 12 -65 12 -65 0z"/>
<path d="M2230 1850 c0 -5 6 -10 14 -10 8 0 16 -5 18 -10 2 -6 26 -12 54 -14
46 -3 51 -2 47 15 -4 15 -9 16 -24 8 -14 -7 -25 -6 -41 6 -25 17 -68 20 -68 5z"/>
<path d="M2800 1851 c0 -8 44 -41 55 -41 3 0 5 6 5 14 0 8 -13 19 -30 25 -16
5 -30 6 -30 2z"/>
<path d="M1728 1843 c-10 -2 -18 -13 -18 -24 0 -22 5 -23 50 -7 31 10 32 12
15 25 -11 7 -21 12 -24 12 -3 -1 -14 -3 -23 -6z"/>
<path d="M1290 1830 c0 -5 5 -10 11 -10 5 0 7 5 4 10 -3 6 -8 10 -11 10 -2 0
-4 -4 -4 -10z"/>
<path d="M2060 1829 c0 -6 6 -9 14 -6 8 3 17 1 20 -6 2 -7 5 -4 5 6 1 11 -6
17 -19 17 -11 0 -20 -5 -20 -11z"/>
<path d="M2633 1832 c-9 -6 -7 -11 6 -19 16 -10 18 -9 14 8 -3 10 -6 19 -7 19
0 0 -6 -4 -13 -8z"/>
<path d="M2772 1819 c-26 -10 -21 -29 8 -29 18 0 35 26 22 34 -4 2 -17 0 -30
-5z"/>
<path d="M594 1803 c3 -7 1 -13 -4 -13 -6 0 -10 -5 -10 -12 0 -6 9 -3 20 7 24
22 25 32 5 32 -9 0 -14 -6 -11 -14z"/>
<path d="M1800 1806 c0 -32 13 -46 41 -46 16 0 29 -4 29 -10 0 -14 36 -31 54
-24 14 5 14 9 -2 30 -18 24 -39 34 -26 12 4 -7 -1 -6 -12 3 -10 9 -34 24 -51
33 -28 14 -33 14 -33 2z"/>
<path d="M1980 1813 c-18 -4 -44 -42 -36 -50 3 -4 18 6 32 21 28 28 29 35 4
29z"/>
<path d="M2006 1803 c-8 -21 -1 -27 17 -16 12 6 13 10 2 20 -10 10 -15 9 -19
-4z"/>
<path d="M2408 1806 c-20 -15 -24 -46 -7 -46 14 0 38 30 39 48 0 15 -10 15
-32 -2z"/>
<path d="M328 1803 c7 -3 16 -2 19 1 4 3 -2 6 -13 5 -11 0 -14 -3 -6 -6z"/>
<path d="M2483 1803 c-7 -2 -13 -10 -13 -17 0 -7 14 -10 40 -8 22 2 37 8 34
13 -3 5 -10 7 -15 4 -5 -4 -9 -1 -9 4 0 11 -16 13 -37 4z"/>
<path d="M114 1793 c10 -11 36 -12 36 -2 0 5 -10 9 -22 9 -12 0 -18 -3 -14 -7z"/>
<path d="M410 1790 c0 -5 9 -14 20 -20 16 -8 20 -8 20 4 0 7 -7 17 -16 20 -21
8 -24 8 -24 -4z"/>
<path d="M2120 1790 c0 -13 60 -13 80 0 11 7 2 10 -32 10 -27 0 -48 -4 -48
-10z"/>
<path d="M2700 1775 c-10 -13 -9 -15 9 -15 11 0 21 4 21 9 0 18 -18 21 -30 6z"/>
<path d="M2610 1755 c1 -26 2 -28 11 -12 8 14 8 22 0 30 -8 8 -11 3 -11 -18z"/>
<path d="M2822 1760 c8 -13 15 -16 19 -8 10 15 2 28 -17 28 -12 0 -12 -4 -2
-20z"/>
<path d="M30 1760 c0 -5 7 -10 15 -10 8 0 15 5 15 10 0 6 -7 10 -15 10 -8 0
-15 -4 -15 -10z"/>
<path d="M230 1755 c0 -9 6 -12 15 -9 8 4 12 10 9 15 -8 14 -24 10 -24 -6z"/>
<path d="M2018 1763 c-9 -2 -19 -10 -22 -18 -3 -10 4 -13 30 -10 24 2 34 -1
34 -11 0 -8 5 -14 11 -14 17 0 6 31 -16 45 -11 6 -27 10 -37 8z"/>
<path d="M2138 1763 c-27 -7 -21 -28 7 -29 15 -1 25 4 25 11 0 17 -10 23 -32
18z"/>
<path d="M85 1749 c-10 -15 1 -22 24 -14 12 3 19 11 16 16 -8 12 -32 11 -40
-2z"/>
<path d="M205 1750 c3 -5 8 -10 11 -10 2 0 4 5 4 10 0 6 -5 10 -11 10 -5 0 -7
-4 -4 -10z"/>
<path d="M1243 1741 c-18 -9 -33 -22 -33 -28 0 -7 -5 -13 -10 -13 -26 0 -166
-166 -173 -204 -3 -15 -18 -34 -53 -70 -47 -46 -63 -58 -74 -51 -5 3 -17 2
-27 -3 -14 -9 -14 -10 5 -16 29 -10 92 4 99 20 3 8 8 12 12 11 3 -2 14 4 24
15 9 10 15 18 12 18 -3 0 -1 9 5 20 6 12 16 18 23 14 9 -5 9 -4 0 6 -9 10 -7
20 10 44 12 17 25 33 30 34 4 2 7 8 7 13 0 11 15 31 43 57 9 9 34 33 54 52 20
19 41 34 46 32 5 -2 18 5 29 15 17 15 21 15 28 3 7 -10 10 -11 10 -2 0 6 7 12
15 12 8 0 15 -4 15 -10 0 -5 8 -10 19 -10 10 0 36 -16 57 -35 21 -19 41 -35
46 -35 9 0 28 -34 33 -61 2 -11 11 -26 19 -35 9 -8 16 -24 16 -34 0 -10 6 -21
13 -24 6 -4 2 -4 -11 -2 -12 2 -19 0 -16 -5 3 -5 23 -6 45 -3 38 6 39 6 40
-22 3 -67 -1 -256 -5 -263 -3 -4 -10 -45 -15 -91 -6 -46 -15 -86 -19 -89 -13
-9 -24 -73 -12 -66 6 3 10 3 11 -2 0 -4 3 -19 6 -33 3 -14 6 -37 6 -52 1 -15
5 -24 9 -22 4 3 8 -5 8 -18 1 -21 2 -21 11 -5 6 10 8 37 4 60 -11 76 -9 141 8
212 9 39 17 121 18 183 2 83 6 112 15 112 17 0 13 85 -4 102 -7 7 -12 18 -12
25 0 16 -5 16 -29 1 -27 -17 -51 -3 -51 29 0 15 -7 37 -15 47 -8 10 -12 22
-10 26 3 5 -2 10 -10 14 -8 3 -15 12 -15 21 0 8 -3 15 -8 15 -4 0 -23 14 -42
30 -47 41 -49 42 -93 63 -45 20 -71 20 -114 -2z"/>
<path d="M2235 1740 c-21 -23 -12 -39 13 -24 19 12 29 44 14 44 -5 0 -17 -9
-27 -20z"/>
<path d="M2536 1745 c-3 -8 -1 -15 4 -15 6 0 10 7 10 15 0 8 -2 15 -4 15 -2 0
-6 -7 -10 -15z"/>
<path d="M2780 1733 c0 -25 15 -38 25 -22 4 6 0 18 -9 27 -15 15 -16 15 -16
-5z"/>
<path d="M2300 1725 c-7 -8 -10 -18 -6 -22 3 -3 6 0 6 8 0 12 2 12 10 -1 12
-19 24 -6 13 15 -9 15 -11 15 -23 0z"/>
<path d="M2750 1730 c-13 -8 -12 -10 3 -10 9 0 17 5 17 10 0 12 -1 12 -20 0z"/>
<path d="M340 1720 c0 -5 5 -10 11 -10 5 0 7 5 4 10 -3 6 -8 10 -11 10 -2 0
-4 -4 -4 -10z"/>
<path d="M550 1723 c0 -4 4 -14 8 -21 10 -15 45 -5 39 12 -4 13 -47 21 -47 9z"/>
<path d="M1620 1723 c0 -5 4 -14 9 -22 7 -11 11 -9 20 8 10 18 9 21 -9 21 -11
0 -20 -3 -20 -7z"/>
<path d="M1688 1723 c6 -2 12 -11 12 -20 0 -19 20 -38 48 -45 17 -5 22 -2 22
13 0 14 -7 19 -25 19 -14 0 -29 8 -35 20 -6 11 -16 20 -23 19 -9 0 -9 -2 1 -6z"/>
<path d="M2190 1706 c0 -9 5 -16 10 -16 6 0 10 4 10 9 0 6 -4 13 -10 16 -5 3
-10 -1 -10 -9z"/>
<path d="M2485 1696 c-11 -12 -40 -26 -65 -32 -30 -6 -46 -15 -48 -27 -4 -21
21 -23 38 -2 7 8 18 14 24 13 27 -5 95 47 80 62 -5 5 -17 -1 -29 -14z"/>
<path d="M475 1699 c-10 -15 1 -23 20 -15 9 3 13 10 10 16 -8 13 -22 13 -30
-1z"/>
<path d="M2576 1693 c-4 -9 -3 -20 2 -25 6 -6 11 1 14 16 6 29 -6 35 -16 9z"/>
<path d="M2678 1703 c7 -3 16 -2 19 1 4 3 -2 6 -13 5 -11 0 -14 -3 -6 -6z"/>
<path d="M1816 1683 c-7 -16 0 -20 57 -28 47 -7 61 2 35 23 -21 16 -87 20 -92
5z"/>
<path d="M33 1676 c0 -19 13 -21 21 -3 5 10 7 10 12 0 3 -7 12 -13 21 -13 27
0 7 25 -24 28 -21 2 -30 -1 -30 -12z"/>
<path d="M182 1678 c6 -18 28 -21 28 -4 0 9 -7 16 -16 16 -9 0 -14 -5 -12 -12z"/>
<path d="M253 1677 c-9 -15 8 -22 60 -23 28 -1 53 -7 55 -12 2 -6 14 -6 33 2
26 9 33 8 42 -5 19 -25 97 -13 81 12 -4 6 -14 3 -25 -7 -10 -9 -19 -12 -19 -6
0 17 -71 36 -122 33 -30 -2 -48 1 -48 8 0 12 -49 11 -57 -2z"/>
<path d="M2047 1672 c-10 -10 -15 -21 -11 -24 8 -8 64 15 64 26 0 5 7 1 15
-10 8 -10 15 -28 15 -38 0 -15 3 -17 11 -9 14 14 8 58 -8 58 -6 0 -15 3 -19 8
-14 13 -51 7 -67 -11z"/>
<path d="M2730 1665 c6 -8 17 -12 24 -9 8 3 20 -2 29 -10 23 -23 37 -20 37 9
0 26 -9 32 -26 15 -6 -6 -21 -6 -43 0 -27 8 -31 7 -21 -5z"/>
<path d="M1930 1660 c0 -5 11 -10 24 -10 14 0 28 5 31 10 4 6 -7 10 -24 10
-17 0 -31 -4 -31 -10z"/>
<path d="M2195 1660 c-19 -8 -19 -9 3 -9 12 -1 22 4 22 9 0 6 -1 10 -2 9 -2 0
-12 -4 -23 -9z"/>
<path d="M2307 1653 c-14 -15 -21 -15 -37 -5 -30 18 -36 14 -9 -6 50 -39 96
-30 72 12 -8 14 -11 14 -26 -1z"/>
<path d="M2987 1628 c-3 -24 -4 -65 -2 -93 1 -27 0 -53 -2 -57 -3 -6 -13 -128
-14 -178 -1 -15 -13 -48 -30 -82 -5 -11 -4 -20 2 -24 13 -8 6 -91 -9 -121 -18
-34 -32 -156 -19 -171 8 -11 7 -16 -6 -23 -9 -6 -17 -18 -17 -28 0 -25 22 -42
40 -31 14 9 16 23 24 140 2 30 9 68 15 85 7 17 8 31 3 33 -5 1 -4 19 4 41 10
30 11 45 2 69 -10 25 -9 37 4 64 10 22 12 41 7 55 -5 13 -4 25 1 28 8 5 14
335 6 335 -2 0 -6 -19 -9 -42z"/>
<path d="M2614 1625 c-17 -41 -17 -45 -4 -45 10 0 50 58 50 73 0 4 -7 7 -16 7
-8 0 -22 -16 -30 -35z"/>
<path d="M2509 1643 c0 -5 -2 -21 -4 -37 -3 -22 -1 -26 8 -17 6 6 19 11 29 11
23 0 23 5 -2 30 -21 21 -30 25 -31 13z"/>
<path d="M631 1619 c-18 -17 -25 -19 -32 -8 -4 7 -11 10 -15 6 -4 -3 -1 -13 5
-21 7 -8 11 -20 9 -28 -1 -7 2 -13 7 -13 6 0 9 3 8 8 -2 4 2 7 7 7 6 0 10 7
10 15 0 7 7 18 16 23 9 5 15 15 13 21 -3 8 -13 4 -28 -10z"/>
<path d="M1667 1634 c-11 -11 3 -24 18 -18 8 4 12 10 9 15 -6 11 -18 12 -27 3z"/>
<path d="M2699 1597 c-19 -12 -34 -27 -34 -32 0 -6 -4 -15 -8 -22 -4 -6 -3
-14 3 -18 5 -3 14 5 20 19 8 23 20 30 42 28 14 -2 31 29 21 39 -6 6 -21 1 -44
-14z"/>
<path d="M60 1601 c0 -6 5 -13 10 -16 14 -9 13 -48 -2 -63 -7 -7 -23 -12 -36
-12 -18 0 -22 4 -17 19 3 11 1 22 -5 26 -6 4 -10 -7 -10 -28 0 -32 2 -33 30
-29 21 3 30 0 30 -9 0 -19 -12 -35 -30 -42 -10 -4 -9 -6 6 -6 16 -1 29 14 53
58 31 58 41 98 21 86 -5 -3 -10 1 -10 9 0 9 -9 16 -20 16 -11 0 -20 -4 -20 -9z"/>
<path d="M136 1602 c-2 -4 7 -12 20 -19 14 -7 22 -7 18 -1 -4 6 0 14 7 19 10
6 6 9 -13 9 -15 0 -29 -3 -32 -8z"/>
<path d="M711 1594 c0 -11 3 -14 6 -6 3 7 2 16 -1 19 -3 4 -6 -2 -5 -13z"/>
<path d="M1637 1595 c-7 -22 -4 -51 6 -61 12 -12 17 20 9 51 -8 26 -10 27 -15
10z"/>
<path d="M1920 1589 c-11 -19 -10 -20 9 -9 22 11 29 30 11 30 -5 0 -14 -9 -20
-21z"/>
<path d="M2080 1595 c7 -8 16 -12 21 -9 13 8 1 24 -18 24 -13 0 -13 -3 -3 -15z"/>
<path d="M283 1580 c-3 -11 -10 -20 -15 -20 -5 0 -6 -4 -3 -10 12 -20 -17 -10
-34 12 -18 21 -18 21 -36 -28 -10 -27 -23 -54 -28 -61 -5 -7 -6 -17 -2 -23 9
-15 45 17 39 35 -5 12 20 45 34 45 22 -1 93 -28 93 -36 1 -5 5 -14 10 -21 7
-8 -2 -13 -31 -18 -46 -8 -56 -18 -36 -35 12 -9 17 -7 26 10 7 13 17 19 28 16
19 -6 82 28 82 44 0 5 -7 10 -16 10 -18 0 -75 30 -86 44 -7 11 13 47 23 40 4
-2 10 0 14 6 4 6 -7 10 -25 10 -23 0 -33 -5 -37 -20z"/>
<path d="M560 1590 c0 -5 5 -10 10 -10 6 0 10 5 10 10 0 6 -4 10 -10 10 -5 0
-10 -4 -10 -10z"/>
<path d="M1830 1590 c0 -5 5 -10 10 -10 6 0 10 5 10 10 0 6 -4 10 -10 10 -5 0
-10 -4 -10 -10z"/>
<path d="M2253 1580 c-1 -11 2 -18 6 -16 11 7 38 -28 33 -43 -6 -17 16 -31 47
-31 19 0 22 4 18 21 -5 18 -1 20 31 19 51 -3 62 -1 62 8 0 4 -10 8 -21 9 -28
2 -35 11 -21 25 18 18 15 28 -9 28 -17 0 -20 -4 -15 -23 4 -19 0 -26 -19 -35
-14 -6 -25 -16 -25 -22 0 -18 -20 0 -30 26 -5 13 -16 24 -25 24 -8 0 -15 7
-15 15 0 23 -16 18 -17 -5z"/>
<path d="M2001 1563 c1 -17 3 -21 6 -10 2 9 9 17 14 17 5 0 9 5 9 10 0 6 -7
10 -15 10 -10 0 -15 -9 -14 -27z"/>
<path d="M2165 1581 c-3 -5 -1 -12 5 -16 5 -3 10 1 10 9 0 18 -6 21 -15 7z"/>
<path d="M2446 1581 c-3 -5 3 -11 14 -14 24 -6 36 8 14 17 -20 8 -22 8 -28 -3z"/>
<path d="M2523 1552 c-23 -15 -43 -34 -46 -43 -2 -9 -25 -22 -51 -30 -32 -9
-41 -15 -30 -20 22 -7 76 11 99 34 10 10 28 23 41 27 25 10 49 46 36 54 -4 2
-26 -8 -49 -22z"/>
<path d="M2751 1564 c0 -11 3 -14 6 -6 3 7 2 16 -1 19 -3 4 -6 -2 -5 -13z"/>
<path d="M429 1559 c-9 -6 -1 -9 24 -9 20 0 37 4 37 9 0 11 -44 11 -61 0z"/>
<path d="M1860 1563 c0 -5 5 -15 10 -23 9 -13 11 -13 19 0 7 10 6 17 -2 22
-15 10 -27 10 -27 1z"/>
<path d="M2780 1560 c0 -6 7 -10 15 -10 8 0 15 2 15 4 0 2 -7 6 -15 10 -8 3
-15 1 -15 -4z"/>
<path d="M1773 1553 c-25 -10 -12 -23 22 -23 26 0 33 3 29 15 -6 15 -27 18
-51 8z"/>
<path d="M2320 1550 c0 -5 5 -10 10 -10 6 0 10 5 10 10 0 6 -4 10 -10 10 -5 0
-10 -4 -10 -10z"/>
<path d="M2855 1550 c-9 -15 -15 -201 -6 -195 5 2 9 28 10 56 1 73 11 75 12 3
l2 -59 7 45 c4 24 4 59 0 77 -4 17 -5 34 -2 37 10 10 43 6 37 -4 -3 -5 1 -10
9 -10 9 0 16 3 16 8 0 4 3 17 6 30 6 20 3 22 -39 22 -25 0 -49 -4 -52 -10z"/>
<path d="M1690 1530 c-8 -16 -8 -20 3 -20 8 0 22 9 32 20 18 19 17 20 -3 20
-12 0 -26 -9 -32 -20z"/>
<path d="M2210 1539 c0 -8 -9 -20 -20 -27 -27 -16 -27 -37 -1 -22 20 10 37 47
27 57 -3 4 -6 0 -6 -8z"/>
<path d="M425 1530 c-3 -6 1 -7 9 -4 18 7 21 14 7 14 -6 0 -13 -4 -16 -10z"/>
<path d="M755 1531 c-6 -11 9 -23 19 -14 9 9 7 23 -3 23 -6 0 -12 -4 -16 -9z"/>
<path d="M520 1521 c0 -6 5 -13 10 -16 6 -3 10 1 10 9 0 9 -4 16 -10 16 -5 0
-10 -4 -10 -9z"/>
<path d="M635 1497 c-8 -20 -15 -41 -15 -47 0 -16 -48 -107 -60 -115 -15 -9
-12 -25 5 -25 33 0 119 190 96 213 -7 7 -15 0 -26 -26z"/>
<path d="M1838 1524 c-5 -4 -8 -16 -8 -28 0 -14 3 -17 11 -9 6 6 9 19 7 28 -1
9 -6 13 -10 9z"/>
<path d="M2008 1524 c-4 -3 3 -15 14 -26 15 -15 22 -17 34 -7 24 19 17 39 -14
39 -16 0 -31 -3 -34 -6z"/>
<path d="M2723 1522 c-18 -11 -24 -72 -7 -72 17 0 19 20 2 21 -7 1 -2 4 11 8
30 8 49 51 23 51 -9 0 -22 -4 -29 -8z"/>
<path d="M1920 1510 c0 -5 5 -10 10 -10 6 0 10 5 10 10 0 6 -4 10 -10 10 -5 0
-10 -4 -10 -10z"/>
<path d="M2587 1509 c-9 -6 -15 -15 -11 -21 4 -6 10 -5 15 3 7 11 10 9 15 -8
4 -13 13 -23 20 -23 8 0 17 -7 20 -15 5 -11 11 -12 25 -5 25 14 14 37 -22 45
-16 4 -32 13 -36 20 -6 10 -13 11 -26 4z"/>
<path d="M561 1501 c-10 -6 -10 -10 -1 -16 13 -8 24 -1 19 14 -3 6 -10 7 -18
2z"/>
<path d="M2370 1499 c0 -5 5 -7 10 -4 6 3 10 8 10 11 0 2 -4 4 -10 4 -5 0 -10
-5 -10 -11z"/>
<path d="M126 1477 c-5 -15 -6 -31 -2 -34 11 -11 18 5 14 34 l-4 28 -8 -28z"/>
<path d="M2095 1490 c3 -5 8 -10 11 -10 2 0 4 5 4 10 0 6 -5 10 -11 10 -5 0
-7 -4 -4 -10z"/>
<path d="M2221 1491 c-10 -6 -10 -10 -1 -16 13 -8 24 -1 19 14 -3 6 -10 7 -18
2z"/>
<path d="M1900 1480 c-8 -5 -12 -11 -9 -14 3 -3 14 1 25 9 21 16 8 20 -16 5z"/>
<path d="M2905 1477 c-12 -9 -14 -16 -7 -21 8 -5 8 -15 2 -32 -6 -14 -10 -36
-10 -50 0 -13 -4 -24 -10 -24 -5 0 -10 -13 -10 -30 0 -22 4 -28 15 -24 8 4 15
1 15 -5 0 -6 -7 -11 -15 -11 -8 0 -17 -14 -21 -35 -3 -19 -10 -35 -15 -35 -6
0 -6 -7 -1 -17 10 -21 -5 -103 -19 -103 -6 0 -6 -7 0 -19 6 -10 7 -21 4 -25
-3 -3 -6 -22 -5 -41 1 -30 -3 -37 -26 -46 -14 -6 -29 -13 -32 -17 -3 -4 -28
-15 -56 -25 -55 -19 -98 -15 -112 10 -7 12 -12 10 -25 -10 -14 -22 -15 -27 -1
-38 16 -13 102 -20 145 -12 16 3 26 11 25 20 -1 18 51 40 64 27 4 -5 6 -24 3
-42 -4 -26 -12 -36 -34 -44 -36 -12 -37 -23 -2 -25 29 -1 64 33 56 54 -3 7 3
32 12 56 10 23 23 83 30 132 7 50 16 102 20 118 6 21 4 27 -9 27 -21 0 -21 19
0 27 24 9 33 43 35 133 1 44 6 83 10 86 11 7 12 54 1 54 -5 0 -16 -6 -27 -13z"/>
<path d="M1735 1462 c-3 -9 0 -20 6 -26 9 -8 10 -7 4 3 -7 11 -2 13 23 8 43
-9 48 6 7 19 -28 9 -35 8 -40 -4z"/>
<path d="M1980 1469 c0 -5 5 -7 10 -4 6 3 10 2 10 -4 0 -6 8 -7 17 -4 15 6 15
7 -3 14 -27 11 -34 10 -34 -2z"/>
<path d="M2485 1469 c-10 -15 3 -25 16 -12 7 7 7 13 1 17 -6 3 -14 1 -17 -5z"/>
<path d="M2560 1468 c0 -9 -14 -30 -32 -47 -29 -28 -30 -31 -11 -31 13 0 24 8
28 20 3 11 12 20 19 20 7 0 12 9 11 20 -2 24 -15 40 -15 18z"/>
<path d="M466 1451 c-4 -7 -5 -15 -2 -18 9 -9 19 4 14 18 -4 11 -6 11 -12 0z"/>
<path d="M490 1424 c0 -18 -4 -25 -14 -21 -17 7 -28 -16 -20 -38 8 -21 40 -19
64 5 20 20 28 56 11 45 -5 -3 -12 4 -16 15 -9 29 -25 25 -25 -6z"/>
<path d="M740 1390 c0 -44 -4 -62 -15 -66 -13 -5 -13 -8 1 -21 8 -9 13 -22 10
-29 -3 -9 2 -14 13 -14 29 0 35 -29 8 -39 -12 -5 -28 -6 -34 -4 -8 3 -13 -4
-13 -18 0 -13 -4 -31 -10 -39 -9 -15 4 -30 28 -30 8 0 10 8 6 26 -4 17 -2 29
7 35 21 13 25 11 37 -16 17 -36 15 -42 -10 -49 -21 -7 -22 -8 -4 -15 25 -10
45 -60 35 -87 -6 -17 -3 -24 16 -32 21 -10 22 -13 12 -51 -9 -33 -16 -41 -33
-41 -13 0 -26 5 -29 10 -8 12 -55 13 -55 1 0 -5 18 -11 40 -15 23 -3 43 -13
47 -21 4 -13 10 -11 30 9 14 14 22 29 19 34 -3 6 0 15 8 21 10 8 17 3 32 -24
15 -29 44 -55 44 -40 0 18 -35 73 -43 68 -6 -4 -8 0 -4 10 6 16 -13 74 -30 90
-4 5 -8 12 -9 15 0 4 -7 27 -14 52 -17 56 -19 68 -25 155 -3 39 -7 76 -10 84
-3 8 2 23 12 33 16 18 16 20 1 29 -9 5 -24 16 -32 24 -27 28 -36 17 -36 -45z
m37 -90 c1 -11 -2 -20 -8 -20 -10 0 -12 23 -2 33 9 9 9 10 10 -13z m83 -300
c0 -5 -2 -10 -4 -10 -3 0 -8 5 -11 10 -3 6 -1 10 4 10 6 0 11 -4 11 -10z"/>
<path d="M1076 1441 c-3 -5 0 -11 7 -14 8 -3 14 1 14 9 0 16 -13 19 -21 5z"/>
<path d="M1920 1430 c0 -22 16 -26 40 -10 13 9 13 11 0 20 -24 16 -40 12 -40
-10z"/>
<path d="M2290 1441 c0 -5 7 -11 14 -14 10 -4 13 -1 9 9 -6 15 -23 19 -23 5z"/>
<path d="M2357 1435 c3 -9 -2 -24 -11 -34 -10 -11 -13 -22 -8 -25 6 -3 12 1
15 8 3 8 18 16 33 18 37 4 40 20 7 36 -35 16 -44 15 -36 -3z"/>
<path d="M2176 1424 c-9 -23 -8 -24 14 -24 11 0 20 2 20 4 0 12 -13 36 -20 36
-4 0 -11 -7 -14 -16z"/>
<path d="M338 1410 c-15 -17 -14 -18 15 -24 41 -8 54 7 24 27 -22 14 -25 14
-39 -3z"/>
<path d="M1470 1410 c0 -5 7 -10 15 -10 8 0 15 -9 15 -20 0 -11 -4 -20 -10
-20 -5 0 -10 -7 -10 -15 0 -8 5 -15 10 -15 6 0 10 7 10 15 0 9 11 21 25 27 32
14 31 20 -2 36 -33 15 -53 16 -53 2z"/>
<path d="M1825 1411 c-10 -17 12 -21 25 -6 10 12 10 15 -3 15 -9 0 -18 -4 -22
-9z"/>
<path d="M77 1375 c-9 -19 -13 -35 -8 -35 12 0 27 21 35 48 11 35 -8 26 -27
-13z"/>
<path d="M1695 1400 c-3 -5 -1 -10 4 -10 6 0 11 5 11 10 0 6 -2 10 -4 10 -3 0
-8 -4 -11 -10z"/>
<path d="M2035 1400 c4 -6 11 -8 16 -5 14 9 11 15 -7 15 -8 0 -12 -5 -9 -10z"/>
<path d="M2234 1393 c-3 -10 -10 -26 -15 -36 -15 -28 -7 -29 26 -3 19 15 26
28 22 39 -8 22 -26 22 -33 0z"/>
<path d="M2713 1391 c-2 -27 25 -49 33 -27 8 21 -2 46 -19 46 -7 0 -13 -9 -14
-19z"/>
<path d="M2597 1393 c-13 -12 -7 -23 13 -23 11 0 20 7 20 15 0 15 -21 21 -33
8z"/>
<path d="M1413 1371 c0 -11 5 -18 9 -15 4 3 5 11 1 19 -7 21 -12 19 -10 -4z"/>
<path d="M2408 1367 c-44 -26 -48 -37 -13 -37 26 0 34 -15 13 -23 -7 -3 -2 -6
12 -6 14 0 31 3 39 8 11 7 9 10 -8 16 -25 8 -28 25 -3 25 9 1 28 7 41 14 l23
13 -23 6 c-35 10 -40 8 -81 -16z"/>
<path d="M13 1373 c-7 -2 -13 -14 -13 -24 0 -25 16 -17 23 11 3 11 4 20 4 19
-1 0 -8 -3 -14 -6z"/>
<path d="M1997 1373 c-4 -3 -7 -11 -7 -17 0 -6 5 -5 12 2 6 6 9 14 7 17 -3 3
-9 2 -12 -2z"/>
<path d="M1790 1350 c0 -11 5 -20 10 -20 6 0 10 -9 10 -21 0 -20 1 -20 30 -2
18 11 26 19 18 22 -7 2 -19 12 -26 23 -17 24 -42 23 -42 -2z"/>
<path d="M2100 1361 c-34 -6 -34 -7 -13 -19 27 -15 57 -16 47 -1 -3 6 0 15 7
20 15 10 11 10 -41 0z"/>
<path d="M300 1344 c-10 -12 -7 -14 19 -14 26 0 32 -4 29 -20 -2 -10 2 -19 7
-20 6 0 10 5 9 10 -1 6 -2 16 -2 23 -1 8 -13 19 -26 25 -19 9 -27 8 -36 -4z"/>
<path d="M1735 1350 c-3 -5 3 -10 14 -10 11 0 23 5 26 10 3 6 -3 10 -14 10
-11 0 -23 -4 -26 -10z"/>
<path d="M2541 1346 c-9 -11 -8 -17 4 -29 8 -9 15 -20 15 -25 0 -5 7 -15 15
-22 23 -19 29 11 11 54 -16 39 -27 44 -45 22z"/>
<path d="M2650 1345 c0 -8 2 -15 4 -15 2 0 6 7 10 15 3 8 1 15 -4 15 -6 0 -10
-7 -10 -15z"/>
<path d="M1320 1340 c0 -6 7 -10 15 -10 8 0 15 2 15 4 0 2 -7 6 -15 10 -8 3
-15 1 -15 -4z"/>
<path d="M1421 1341 c-8 -6 -9 -11 -3 -15 6 -3 14 -1 17 5 9 14 2 20 -14 10z"/>
<path d="M1955 1339 c-10 -15 3 -25 16 -12 7 7 7 13 1 17 -6 3 -14 1 -17 -5z"/>
<path d="M448 1329 c-10 -5 -18 -21 -18 -34 0 -25 10 -32 24 -18 4 4 15 8 24
8 21 0 29 35 10 46 -16 11 -19 11 -40 -2z"/>
<path d="M1000 1330 c0 -5 5 -10 11 -10 5 0 7 5 4 10 -3 6 -8 10 -11 10 -2 0
-4 -4 -4 -10z"/>
<path d="M2030 1320 c0 -11 5 -20 10 -20 6 0 10 9 10 20 0 11 -4 20 -10 20 -5
0 -10 -9 -10 -20z"/>
<path d="M2302 1328 c-23 -5 -40 -13 -37 -18 6 -9 24 -8 43 3 7 5 21 5 32 2
14 -5 20 -2 20 9 0 18 2 18 -58 4z"/>
<path d="M2827 1320 c-4 -14 -13 -60 -21 -102 -11 -66 -11 -79 0 -89 11 -9 14
-6 14 19 0 17 5 53 11 81 6 27 9 65 7 83 -4 31 -4 32 -11 8z"/>
<path d="M49 1323 c0 -5 -2 -17 -4 -28 -4 -20 -4 -20 11 -1 8 11 14 23 14 28
0 10 -20 11 -21 1z"/>
<path d="M917 1323 c-15 -15 -6 -33 17 -33 35 0 56 10 56 26 0 14 -60 20 -73
7z"/>
<path d="M2748 1323 c7 -3 16 -2 19 1 4 3 -2 6 -13 5 -11 0 -14 -3 -6 -6z"/>
<path d="M636 1298 c-9 -36 -7 -84 5 -115 l12 -28 7 25 c4 14 10 51 13 83 7
52 5 57 -12 57 -11 0 -21 -9 -25 -22z"/>
<path d="M1040 1316 c0 -2 7 -6 15 -10 8 -3 15 -1 15 4 0 6 -7 10 -15 10 -8 0
-15 -2 -15 -4z"/>
<path d="M1151 1298 c-1 -26 -13 -34 -43 -29 -5 0 -8 -3 -8 -8 0 -5 -9 -13
-21 -16 -12 -4 -17 -11 -12 -16 13 -13 85 12 109 37 12 13 25 20 28 17 3 -4 6
3 6 15 0 12 -4 22 -10 22 -5 0 -10 -5 -10 -11 0 -5 -4 -7 -10 -4 -5 3 -10 0
-11 -7 0 -7 -4 -4 -9 7 -8 18 -9 17 -9 -7z"/>
<path d="M1335 1310 c4 -6 11 -8 16 -5 14 9 11 15 -7 15 -8 0 -12 -5 -9 -10z"/>
<path d="M1692 1300 c-17 -27 -15 -39 6 -35 9 2 24 4 32 5 10 1 11 3 3 7 -7 2
-13 13 -13 24 0 25 -12 24 -28 -1z"/>
<path d="M2635 1313 c11 -3 24 -9 30 -14 12 -12 45 -12 45 0 0 11 -36 21 -70
20 -21 -1 -21 -2 -5 -6z"/>
<path d="M145 1300 c-3 -5 -2 -10 4 -10 5 0 13 5 16 10 3 6 2 10 -4 10 -5 0
-13 -4 -16 -10z"/>
<path d="M220 1285 c-31 -33 -22 -39 23 -17 29 14 35 20 25 30 -17 17 -21 15
-48 -13z"/>
<path d="M1870 1285 c0 -23 2 -24 20 -13 11 7 20 18 20 25 0 7 -9 13 -20 13
-15 0 -20 -7 -20 -25z"/>
<path d="M2206 1295 c-3 -9 0 -15 8 -15 7 0 19 7 26 15 10 12 9 15 -8 15 -11
0 -22 -7 -26 -15z"/>
<path d="M553 1265 c-3 -9 -3 -19 1 -22 7 -8 56 17 56 29 0 15 -50 8 -57 -7z"/>
<path d="M1275 1270 c-3 -5 -1 -10 4 -10 6 0 11 5 11 10 0 6 -2 10 -4 10 -3 0
-8 -4 -11 -10z"/>
<path d="M1960 1271 c0 -22 13 -39 26 -34 22 8 17 43 -6 43 -11 0 -20 -4 -20
-9z"/>
<path d="M2288 1273 c-1 -5 -20 -16 -40 -25 -38 -18 -54 -45 -20 -35 73 23
112 43 112 58 0 11 -47 12 -52 2z"/>
<path d="M450 1260 c0 -5 -18 -15 -40 -21 -51 -15 -51 -29 -2 -29 41 0 80 29
67 49 -8 14 -25 14 -25 1z"/>
<path d="M2156 1254 c-3 -9 -6 -24 -6 -35 0 -16 3 -17 19 -7 11 7 18 15 15 19
-2 4 0 9 6 11 6 2 2 8 -9 15 -16 10 -20 9 -25 -3z"/>
<path d="M2668 1254 c-36 -19 -35 -21 5 -20 24 1 33 6 34 18 2 22 -4 22 -39 2z"/>
<path d="M2492 1233 c-20 -29 -20 -43 1 -43 5 0 7 7 3 15 -3 8 2 18 11 23 8 5
14 15 11 22 -3 9 -12 3 -26 -17z"/>
<path d="M1770 1235 c30 -17 48 -19 32 -3 -6 6 -22 13 -34 15 -22 3 -22 2 2
-12z"/>
<path d="M2412 1238 c-14 -14 -16 -28 -2 -28 5 0 14 9 20 20 12 22 1 27 -18 8z"/>
<path d="M2600 1234 c0 -8 5 -12 10 -9 6 4 8 11 5 16 -9 14 -15 11 -15 -7z"/>
<path d="M177 1202 c-20 -46 -21 -52 -4 -52 14 0 37 64 27 80 -3 5 -14 -7 -23
-28z"/>
<path d="M1822 1220 c-20 -33 -16 -52 11 -44 25 8 37 22 37 47 0 23 -32 22
-48 -3z"/>
<path d="M0 1201 c0 -18 4 -30 9 -26 6 3 8 15 6 27 -7 34 -15 34 -15 -1z"/>
<path d="M2030 1218 c0 -18 18 -34 28 -24 3 4 -2 14 -11 23 -16 16 -17 16 -17
1z"/>
<path d="M2740 1220 c0 -5 5 -10 10 -10 6 0 10 5 10 10 0 6 -4 10 -10 10 -5 0
-10 -4 -10 -10z"/>
<path d="M320 1210 c0 -5 -15 -10 -33 -10 -18 0 -42 -7 -53 -15 -26 -19 -6
-19 66 3 60 17 78 32 40 32 -11 0 -20 -4 -20 -10z"/>
<path d="M1050 1210 c0 -5 5 -10 10 -10 6 0 10 5 10 10 0 6 -4 10 -10 10 -5 0
-10 -4 -10 -10z"/>
<path d="M1877 1203 c-14 -13 -7 -23 16 -23 12 0 41 -9 62 -20 27 -14 41 -17
44 -9 5 15 -18 29 -46 29 -16 0 -21 4 -17 15 5 11 -1 15 -23 15 -16 0 -33 -3
-36 -7z"/>
<path d="M396 1181 c-3 -5 1 -11 9 -15 18 -6 45 2 45 15 0 12 -47 12 -54 0z"/>
<path d="M2576 1173 c-6 -14 -5 -15 5 -6 7 7 10 15 7 18 -3 3 -9 -2 -12 -12z"/>
<path d="M465 1105 c-41 -81 -83 -115 -140 -115 -14 0 -25 -4 -25 -10 0 -5
-21 -10 -47 -11 l-48 -1 34 -11 c23 -7 42 -7 60 0 17 6 34 6 48 0 17 -8 29 -1
70 39 56 56 103 140 93 168 -5 14 -15 0 -45 -59z"/>
<path d="M2020 1160 c0 -5 5 -10 11 -10 5 0 7 5 4 10 -3 6 -8 10 -11 10 -2 0
-4 -4 -4 -10z"/>
<path d="M2225 1160 c3 -5 18 -10 33 -10 21 0 24 2 12 10 -20 13 -53 13 -45 0z"/>
<path d="M2415 1160 c3 -5 18 -10 33 -10 21 0 24 2 12 10 -20 13 -53 13 -45 0z"/>
<path d="M2535 1160 c-9 -15 3 -30 20 -24 7 3 11 12 8 20 -6 16 -19 18 -28 4z"/>
<path d="M2614 1155 c-4 -8 -12 -15 -20 -15 -8 0 -14 -4 -14 -10 0 -5 8 -10
18 -10 21 0 56 33 45 43 -11 11 -23 8 -29 -8z"/>
<path d="M555 1151 c-5 -9 52 -34 67 -29 6 2 12 11 13 19 2 10 -8 15 -37 15
-21 1 -41 -2 -43 -5z"/>
<path d="M387 1126 c4 -20 0 -24 -29 -29 -18 -2 -46 1 -63 7 -16 7 -39 10 -50
8 -12 -3 10 -14 60 -31 44 -15 83 -25 88 -23 4 2 7 14 7 27 0 13 5 27 10 30
17 11 11 35 -9 35 -14 0 -17 -6 -14 -24z"/>
<path d="M1404 1138 c-5 -7 -3 -8 6 -3 10 6 12 3 8 -13 -6 -23 7 -31 15 -9 3
6 6 2 6 -10 1 -13 5 -23 10 -23 12 0 1 41 -15 58 -16 15 -21 15 -30 0z"/>
<path d="M2361 1131 c-16 -28 7 -41 38 -22 12 8 12 12 2 25 -18 21 -28 20 -40
-3z"/>
<path d="M2734 1140 c-5 -5 -20 -10 -33 -12 -31 -4 -41 -28 -12 -28 12 0 21 5
21 10 0 6 8 10 18 10 9 0 23 4 30 9 11 7 11 9 -1 14 -8 3 -18 2 -23 -3z"/>
<path d="M0 1125 c0 -9 6 -12 15 -9 8 4 15 7 15 9 0 2 -7 5 -15 9 -9 3 -15 0
-15 -9z"/>
<path d="M150 1125 c-9 -11 -16 -13 -24 -5 -18 18 -46 11 -56 -15 -6 -17 -20
-27 -40 -31 -27 -6 -30 -10 -30 -44 0 -33 3 -37 20 -33 20 5 29 33 10 33 -23
0 6 32 46 50 47 22 74 25 74 10 0 -5 6 -10 14 -10 20 0 29 31 13 47 -12 12
-16 12 -27 -2z"/>
<path d="M1129 1120 c-1 -8 0 -19 1 -25 2 -5 2 -18 2 -27 -1 -24 27 -11 32 16
8 38 3 55 -16 53 -10 -1 -19 -8 -19 -17z"/>
<path d="M1717 1123 c-14 -13 -7 -31 11 -29 20 3 30 36 9 36 -7 0 -17 -3 -20
-7z"/>
<path d="M2147 1118 c-23 -12 -21 -38 3 -38 24 0 46 35 27 43 -7 3 -21 1 -30
-5z"/>
<path d="M2210 1109 c0 -12 39 -31 50 -24 5 3 7 0 4 -8 -3 -8 0 -18 6 -22 17
-11 22 0 11 27 -7 18 -19 27 -40 30 -17 3 -31 1 -31 -3z"/>
<path d="M645 1100 c-10 -16 3 -29 24 -23 10 2 25 -3 34 -11 20 -20 37 -21 37
-1 0 15 -38 40 -47 31 -3 -3 -14 -1 -24 4 -12 7 -20 7 -24 0z"/>
<path d="M2029 1088 c0 -2 -2 -16 -3 -31 l-2 -29 18 22 c17 22 16 40 -3 40 -5
0 -9 -1 -10 -2z"/>
<path d="M2426 1069 c-11 -10 -17 -21 -14 -24 7 -7 38 23 38 36 0 12 -2 11
-24 -12z"/>
<path d="M2560 1071 c-22 -42 -4 -55 31 -22 l21 19 -21 11 c-17 9 -22 8 -31
-8z"/>
<path d="M541 1061 c-15 -13 -18 -22 -11 -26 6 -4 14 -4 17 -1 3 3 12 1 20 -5
9 -8 13 -8 13 -1 0 6 9 14 20 17 11 4 18 11 14 16 -3 5 -9 7 -14 4 -5 -3 -11
-1 -15 5 -9 15 -19 12 -44 -9z"/>
<path d="M1214 1068 c-16 -26 29 -37 59 -14 16 12 14 14 -18 18 -20 2 -38 0
-41 -4z"/>
<path d="M2743 1073 c-18 -2 -33 -8 -33 -12 0 -4 -15 -12 -32 -19 -43 -16 -88
-56 -88 -78 0 -15 4 -14 28 7 24 22 59 40 155 78 27 11 38 32 15 29 -7 0 -28
-3 -45 -5z"/>
<path d="M1357 1055 c-4 -8 -2 -17 3 -20 6 -4 10 3 10 14 0 25 -6 27 -13 6z"/>
<path d="M2480 1048 c0 -13 6 -18 18 -16 9 2 17 10 17 17 0 8 -8 15 -17 17
-12 1 -18 -4 -18 -18z"/>
<path d="M219 1044 c-11 -13 -25 -15 -76 -10 -51 5 -63 4 -63 -8 0 -8 -6 -17
-12 -20 -7 -4 -2 -3 12 0 14 3 54 7 90 9 90 3 88 3 100 25 9 17 8 20 -13 20
-14 0 -31 -7 -38 -16z"/>
<path d="M1100 1050 c0 -5 5 -10 10 -10 6 0 10 5 10 10 0 6 -4 10 -10 10 -5 0
-10 -4 -10 -10z"/>
<path d="M2193 1036 c-16 -19 24 -53 46 -39 23 14 25 33 4 33 -11 0 -23 4 -28
9 -6 6 -15 4 -22 -3z"/>
<path d="M340 1030 c0 -5 6 -10 14 -10 8 0 18 5 21 10 3 6 -3 10 -14 10 -12 0
-21 -4 -21 -10z"/>
<path d="M613 1024 c-8 -20 2 -27 26 -19 27 8 27 21 0 28 -12 3 -22 0 -26 -9z"/>
<path d="M1905 1029 c-10 -15 3 -25 16 -12 7 7 7 13 1 17 -6 3 -14 1 -17 -5z"/>
<path d="M1803 1024 c-28 -12 -12 -25 22 -18 24 4 35 2 35 -5 0 -8 4 -8 14 1
8 7 12 15 11 17 -7 6 -70 10 -82 5z"/>
<path d="M2304 1016 c-10 -8 -15 -18 -11 -23 5 -4 14 0 21 10 14 18 41 23 50
8 3 -5 22 -12 41 -15 47 -9 49 -9 53 3 2 6 -6 11 -17 11 -12 0 -21 4 -21 9 0
14 -95 12 -116 -3z"/>
<path d="M1420 1007 c0 -4 -5 -5 -12 -1 -7 4 -8 3 -4 -5 4 -7 13 -10 19 -8 6
2 20 -5 31 -15 26 -23 46 -23 46 1 0 22 -26 36 -34 18 -2 -7 -5 -5 -5 5 -1 17
-41 22 -41 5z"/>
<path d="M1661 994 c0 -11 3 -14 6 -6 3 7 2 16 -1 19 -3 4 -6 -2 -5 -13z"/>
<path d="M517 976 c-7 -18 7 -71 18 -71 11 0 26 56 20 73 -6 16 -32 15 -38 -2z"/>
<path d="M2507 984 c-3 -4 -2 -16 4 -26 8 -15 14 -17 22 -9 8 8 7 15 -4 26 -8
9 -18 13 -22 9z"/>
<path d="M672 973 c-72 -5 -65 -28 9 -29 30 -1 57 0 61 2 9 5 -1 35 -11 32 -3
-1 -30 -3 -59 -5z"/>
<path d="M53 958 c-28 -14 -30 -38 -3 -38 13 0 20 7 20 20 0 11 5 20 10 20 12
0 13 -60 1 -78 -4 -7 -21 -12 -36 -10 -16 2 -30 -2 -32 -9 -3 -9 7 -13 32 -13
29 0 36 -3 31 -15 -4 -12 6 -15 62 -15 65 0 68 1 86 32 l19 31 -34 -7 c-19 -3
-46 -15 -61 -26 -15 -11 -29 -20 -32 -20 -13 0 -14 36 -2 65 10 22 11 37 5 41
-6 3 -8 12 -5 20 6 17 -28 18 -61 2z"/>
<path d="M2217 955 c-5 -11 0 -15 16 -15 12 0 18 4 12 8 -5 4 -13 11 -16 15
-4 4 -9 1 -12 -8z"/>
<path d="M1092 948 c-18 -18 -16 -59 4 -51 10 4 12 9 5 16 -7 7 -7 16 0 29 11
21 8 23 -9 6z"/>
<path d="M1654 945 c10 -7 15 -18 11 -24 -3 -6 -2 -11 4 -11 5 0 16 -7 25 -15
8 -8 21 -12 29 -9 14 5 13 8 -1 25 -9 10 -22 19 -30 19 -7 0 -15 7 -18 15 -4
8 -14 15 -23 15 -14 -1 -14 -2 3 -15z"/>
<path d="M2650 946 c0 -9 5 -16 10 -16 6 0 10 4 10 9 0 6 -4 13 -10 16 -5 3
-10 -1 -10 -9z"/>
<path d="M160 935 c-7 -9 -10 -19 -6 -23 4 -4 14 1 21 11 8 12 15 14 20 8 3
-6 16 -11 28 -11 22 1 22 1 3 15 -25 19 -50 19 -66 0z"/>
<path d="M1430 941 c0 -6 5 -13 10 -16 6 -3 10 1 10 9 0 9 -4 16 -10 16 -5 0
-10 -4 -10 -9z"/>
<path d="M2303 943 c-18 -7 -16 -23 2 -23 8 0 15 7 15 15 0 8 -1 15 -2 14 -2
0 -9 -3 -15 -6z"/>
<path d="M311 906 c-13 -20 -27 -36 -33 -36 -6 0 -8 -6 -5 -14 7 -17 -11 -36
-35 -36 -24 0 -23 -17 2 -25 23 -7 40 1 40 18 0 7 9 18 21 25 12 8 18 19 15
28 -3 8 -1 14 4 14 15 0 29 35 21 49 -6 9 -15 2 -30 -23z"/>
<path d="M1118 933 c7 -3 16 -2 19 1 4 3 -2 6 -13 5 -11 0 -14 -3 -6 -6z"/>
<path d="M1252 926 c-18 -7 -30 -15 -27 -18 8 -7 65 14 65 24 0 4 -1 7 -2 7
-2 -1 -18 -7 -36 -13z"/>
<path d="M1346 931 c-3 -5 0 -11 7 -14 8 -3 14 1 14 9 0 16 -13 19 -21 5z"/>
<path d="M2463 929 c14 -8 22 -8 30 0 8 8 3 11 -18 11 -26 -1 -28 -2 -12 -11z"/>
<path d="M2071 917 c-1 -15 -7 -17 -36 -11 -28 5 -35 3 -35 -10 0 -9 3 -15 8
-15 26 4 52 -3 52 -15 0 -20 64 -5 68 17 3 12 -3 17 -22 17 -15 0 -26 7 -29
18 -4 16 -5 16 -6 -1z"/>
<path d="M1530 910 c0 -5 5 -10 10 -10 6 0 10 5 10 10 0 6 -4 10 -10 10 -5 0
-10 -4 -10 -10z"/>
<path d="M1790 910 c-18 -11 0 -18 50 -20 61 -3 66 -2 53 11 -12 12 -87 19
-103 9z"/>
<path d="M2991 904 c0 -11 3 -14 6 -6 3 7 2 16 -1 19 -3 4 -6 -2 -5 -13z"/>
<path d="M1915 900 c-3 -5 -1 -10 6 -10 23 0 1 -11 -33 -17 -40 -6 -40 -6 -32
-26 5 -15 9 -15 42 -1 20 8 42 12 49 10 21 -8 26 14 7 35 -19 21 -30 24 -39 9z"/>
<path d="M2228 899 c-28 -16 -21 -29 16 -29 27 0 36 -5 42 -22 l8 -23 6 25 c4
16 14 26 28 28 12 2 22 10 22 18 0 19 -19 18 -43 -3 -18 -17 -19 -17 -28 0
-11 19 -26 21 -51 6z"/>
<path d="M2426 901 c-19 -7 -19 -8 3 -14 27 -7 53 1 45 14 -6 11 -21 11 -48 0z"/>
<path d="M2490 901 c0 -15 16 -22 35 -15 13 5 14 8 3 15 -18 12 -38 11 -38 0z"/>
<path d="M470 887 c0 -9 -5 -17 -12 -19 -6 -2 -12 -24 -14 -49 -1 -24 -3 -47
-3 -51 -2 -15 -51 -8 -51 7 0 8 -6 15 -14 15 -18 0 -29 27 -13 34 9 3 9 5 0 5
-18 1 -24 -15 -17 -43 8 -32 58 -54 86 -37 10 6 22 10 27 7 4 -3 21 -8 37 -12
71 -16 91 -16 107 0 9 9 36 19 61 22 25 4 46 11 46 17 0 6 -18 7 -47 2 -27 -4
-58 -8 -69 -9 -12 0 -31 -9 -42 -19 -13 -12 -22 -15 -27 -8 -3 6 -13 11 -21
11 -23 0 -45 26 -38 44 5 13 23 16 93 16 47 0 92 4 100 9 21 14 3 32 -27 26
l-27 -6 29 13 c25 12 26 15 13 26 -12 10 -18 10 -29 0 -38 -35 -90 -49 -103
-28 -4 6 -11 8 -16 4 -6 -3 -9 2 -7 11 2 10 -3 20 -9 22 -7 3 -13 -2 -13 -10z"/>
<path d="M1120 889 c0 -5 -6 -7 -12 -3 -10 5 -10 4 -1 -6 6 -7 16 -9 22 -6 14
9 14 26 1 26 -5 0 -10 -5 -10 -11z"/>
<path d="M1710 860 c0 -5 13 -10 28 -10 15 0 32 -4 38 -9 11 -11 54 4 54 19 0
6 -25 10 -60 10 -33 0 -60 -4 -60 -10z"/>
<path d="M2137 864 c-12 -12 4 -24 30 -24 21 0 24 2 13 15 -13 16 -32 20 -43
9z"/>
<path d="M2992 845 c0 -16 2 -22 5 -12 2 9 2 23 0 30 -3 6 -5 -1 -5 -18z"/>
<path d="M694 848 c-6 -9 47 -25 68 -21 9 2 19 10 22 18 4 11 -5 14 -40 12
-25 -1 -48 -5 -50 -9z"/>
<path d="M2440 852 c-5 -2 -10 -10 -10 -18 0 -15 46 -19 87 -8 19 5 20 8 9 20
-12 12 -57 15 -86 6z"/>
<path d="M2006 835 c-8 -8 -24 -15 -35 -15 -24 0 -37 -18 -23 -32 8 -8 18 -6
36 6 14 9 32 16 40 16 8 0 16 6 19 13 3 8 9 6 19 -7 18 -23 49 -31 42 -11 -5
12 -62 45 -77 45 -3 0 -12 -7 -21 -15z"/>
<path d="M2340 835 c-7 -8 -19 -15 -26 -15 -8 0 -14 -9 -14 -20 0 -27 18 -25
42 5 24 31 35 31 59 3 22 -28 25 -11 3 20 -18 25 -46 29 -64 7z"/>
<path d="M1345 830 c3 -5 10 -10 16 -10 5 0 9 5 9 10 0 6 -7 10 -16 10 -8 0
-12 -4 -9 -10z"/>
<path d="M8 823 c7 -3 16 -2 19 1 4 3 -2 6 -13 5 -11 0 -14 -3 -6 -6z"/>
<path d="M1192 818 c-16 -16 -15 -29 0 -25 14 2 38 23 38 31 0 11 -26 6 -38
-6z"/>
<path d="M1256 815 c-4 -10 1 -15 16 -15 17 0 18 2 8 15 -7 8 -14 15 -15 15
-2 0 -5 -7 -9 -15z"/>
<path d="M2223 823 c-14 -5 -18 -33 -5 -33 10 0 32 22 32 32 0 9 -8 9 -27 1z"/>
<path d="M2563 814 c-11 -29 35 -45 56 -20 7 8 21 12 31 9 12 -3 20 0 20 7 0
8 -9 11 -27 7 -15 -3 -38 -1 -50 4 -18 7 -25 5 -30 -7z"/>
<path d="M809 813 c0 -5 -2 -16 -4 -26 -2 -9 0 -15 5 -12 12 7 19 45 9 45 -5
0 -9 -3 -10 -7z"/>
<path d="M1850 810 c-12 -8 -10 -10 8 -10 13 0 20 4 17 10 -7 12 -6 12 -25 0z"/>
<path d="M1671 801 c-10 -6 -10 -10 -1 -16 16 -10 -6 -25 -38 -25 -15 0 -22
-5 -19 -12 2 -7 9 -12 15 -11 6 1 25 5 43 8 18 3 38 10 45 15 6 6 14 7 17 3 4
-3 7 0 7 8 0 32 -39 49 -69 30z"/>
<path d="M2990 801 c0 -5 -8 -12 -17 -14 -17 -4 -17 -5 0 -6 26 -2 20 -30 -8
-37 -14 -3 -25 -10 -25 -15 0 -5 -7 -9 -15 -9 -15 0 -10 29 8 41 18 12 -2 29
-21 18 -12 -8 -17 -24 -17 -57 0 -66 -18 -102 -47 -95 -13 3 -29 10 -36 16
-19 15 -25 2 -10 -23 9 -15 19 -20 36 -16 12 3 34 9 50 12 54 11 55 12 32 41
-20 26 -20 28 -4 40 12 9 21 9 29 3 8 -7 21 -7 36 -1 l24 10 -22 0 c-28 1 -31
21 -3 21 17 0 20 7 20 40 0 22 -2 40 -5 40 -3 0 -5 -4 -5 -9z"/>
<path d="M740 790 c-12 -8 -11 -10 8 -10 12 0 22 5 22 10 0 13 -11 13 -30 0z"/>
<path d="M15 781 c-8 -14 24 -20 118 -23 64 -3 77 0 75 12 -3 12 -23 16 -95
18 -54 2 -94 -1 -98 -7z"/>
<path d="M2677 783 c-32 -4 -37 -7 -32 -21 4 -9 10 -25 12 -35 7 -22 25 -17
29 7 4 26 10 29 32 17 12 -6 32 -11 46 -11 16 0 26 -6 26 -15 0 -21 43 -19 63
3 23 25 21 32 -8 32 -14 0 -25 4 -25 8 0 5 -25 7 -55 6 -31 -1 -53 2 -49 7 3
5 4 8 2 7 -2 -1 -20 -3 -41 -5z"/>
<path d="M2335 770 c-4 -6 3 -10 14 -10 25 0 27 6 6 13 -8 4 -17 2 -20 -3z"/>
<path d="M2447 766 c-15 -12 -16 -18 -6 -40 7 -14 17 -26 22 -26 5 0 3 8 -4
18 -7 9 -9 14 -4 9 10 -9 45 21 45 40 0 17 -30 16 -53 -1z"/>
<path d="M760 749 c-19 -4 -53 -10 -75 -13 -28 -3 -48 -15 -73 -40 -23 -25
-42 -36 -62 -36 -15 0 -30 -6 -33 -12 -3 -10 -10 -10 -28 1 -44 26 -114 30
-244 14 -96 -12 -106 -14 -123 -30 -7 -7 -24 -13 -37 -13 -27 0 -75 -20 -75
-31 0 -11 77 1 144 22 33 11 73 19 89 19 16 0 44 7 63 16 26 13 40 14 66 5 97
-32 262 -32 242 0 -3 6 3 13 14 16 11 3 23 11 26 19 3 8 15 14 26 14 11 0 20
4 20 8 0 8 14 12 53 13 9 0 17 4 17 10 0 5 7 9 15 9 8 0 15 5 15 10 0 6 -1 10
-2 9 -2 -1 -19 -5 -38 -10z"/>
<path d="M2260 750 c20 -13 40 -13 40 0 0 6 -12 10 -27 10 -22 0 -25 -2 -13
-10z"/>
<path d="M2565 740 c-3 -5 -1 -10 4 -10 6 0 11 5 11 10 0 6 -2 10 -4 10 -3 0
-8 -4 -11 -10z"/>
<path d="M305 731 c-18 -7 -17 -8 6 -13 14 -2 34 -2 44 2 17 6 17 7 1 13 -21
8 -25 8 -51 -2z"/>
<path d="M1915 726 c-20 -13 -133 -29 -224 -30 -26 -1 -46 -6 -48 -13 -3 -8 5
-13 22 -13 14 0 35 -5 45 -10 13 -7 21 -7 25 0 3 5 10 10 16 10 14 0 11 -28
-3 -33 -7 -2 -10 -8 -6 -12 4 -4 47 11 95 35 49 23 106 49 128 56 26 8 32 13
18 13 -12 1 -27 3 -35 6 -7 3 -22 -1 -33 -9z"/>
<path d="M2340 730 c0 -5 7 -10 16 -10 8 0 12 5 9 10 -3 6 -10 10 -16 10 -5 0
-9 -4 -9 -10z"/>
<path d="M2508 733 c6 -2 18 -2 25 0 6 3 1 5 -13 5 -14 0 -19 -2 -12 -5z"/>
<path d="M442 718 c5 -15 28 -18 29 -3 0 6 -7 12 -17 13 -10 3 -15 -1 -12 -10z"/>
<path d="M230 711 c-25 -7 -25 -7 -2 -13 30 -8 69 2 50 13 -15 10 -13 10 -48
0z"/>
<path d="M2 690 c0 -14 2 -19 5 -12 2 6 2 18 0 25 -3 6 -5 1 -5 -13z"/>
<path d="M44 694 c3 -9 6 -18 6 -21 0 -3 7 0 15 7 13 11 13 15 3 21 -21 13
-31 10 -24 -7z"/>
<path d="M2153 698 c15 -5 27 -16 27 -24 0 -8 5 -14 10 -14 6 0 8 -10 5 -23
-4 -16 1 -31 18 -49 14 -15 37 -52 52 -82 15 -31 31 -56 35 -56 8 0 23 -38 21
-52 -1 -5 4 -8 9 -8 6 0 10 -13 10 -29 0 -17 5 -33 11 -36 6 -4 8 -13 5 -21
-3 -8 0 -13 5 -11 6 1 13 -8 15 -21 2 -13 11 -30 18 -38 13 -12 15 -12 21 5 6
21 -3 51 -17 51 -5 0 -6 5 -3 11 4 5 1 18 -7 27 -8 9 -21 37 -28 62 -7 25 -20
51 -29 58 -13 10 -13 16 -4 32 11 17 9 19 -15 22 -20 2 -26 8 -24 21 2 11 -3
24 -12 30 -8 7 -25 32 -37 57 -12 25 -29 53 -37 63 -8 9 -11 17 -6 18 17 1
-31 18 -51 18 -15 -1 -13 -3 8 -11z"/>
<path d="M2500 674 c0 -8 5 -12 10 -9 6 4 8 11 5 16 -9 14 -15 11 -15 -7z"/>
<path d="M2737 683 c-9 -9 -102 -25 -144 -24 -18 0 -33 -5 -33 -11 0 -6 -12
-8 -29 -5 -23 5 -30 2 -34 -13 -5 -18 -1 -19 34 -14 23 4 51 1 69 -6 23 -10
34 -10 43 -1 6 6 21 11 34 11 13 0 26 6 29 14 3 8 16 17 29 20 25 6 43 36 21
36 -7 0 -16 -3 -19 -7z"/>
<path d="M2970 678 c0 -4 4 -8 9 -8 6 0 12 4 15 8 3 5 -1 9 -9 9 -8 0 -15 -4
-15 -9z"/>
<path d="M1980 650 c-22 -19 -38 -25 -85 -34 -11 -1 -27 -5 -35 -8 -57 -19
-89 -28 -106 -29 -12 0 -9 -4 11 -10 17 -5 53 -6 80 -2 28 4 56 7 62 6 7 0 11
3 8 7 -5 8 52 26 68 22 4 -1 10 5 13 13 4 9 19 15 41 15 19 0 32 -4 29 -9 -7
-11 57 -19 81 -10 20 8 5 13 -32 10 -17 -2 -17 0 -5 8 12 9 11 11 -7 11 -12 0
-23 4 -25 9 -1 5 -19 12 -38 16 -28 5 -41 2 -60 -15z"/>
<path d="M2353 651 c-7 -26 -29 -34 -53 -19 -24 15 -37 4 -19 -15 18 -17 89
-21 89 -4 0 7 3 22 6 35 4 14 2 22 -6 22 -6 0 -14 -9 -17 -19z"/>
<path d="M40 649 c0 -5 5 -7 10 -4 6 3 10 8 10 11 0 2 -4 4 -10 4 -5 0 -10 -5
-10 -11z"/>
<path d="M2956 642 c-9 -14 -1 -40 20 -63 14 -17 15 -21 3 -17 -8 3 -26 -3
-40 -13 -13 -10 -30 -19 -37 -19 -8 0 -12 -6 -9 -12 2 -8 23 -13 50 -14 44 -1
47 0 43 22 -3 13 0 24 5 24 14 0 11 36 -5 50 -8 6 -13 17 -10 25 6 15 -12 30
-20 17z"/>
<path d="M2445 610 c-4 -6 -14 -8 -24 -5 -12 3 -17 -1 -18 -15 -1 -11 4 -20
12 -20 7 0 20 -7 28 -15 13 -13 16 -12 21 9 3 13 9 31 12 40 7 18 -21 23 -31
6z"/>
<path d="M2726 611 c-20 -7 -19 -8 0 -13 11 -3 29 1 39 8 18 14 18 14 -1 13
-10 0 -28 -4 -38 -8z"/>
<path d="M2525 571 c3 -6 0 -13 -7 -18 -7 -4 -19 -16 -26 -25 -12 -15 -8 -16
40 -16 30 0 63 -2 74 -5 23 -8 49 7 40 22 -4 6 -23 11 -42 11 -21 0 -42 8 -54
20 -21 21 -35 27 -25 11z"/>
<path d="M2861 571 c-37 -10 -39 -32 -3 -27 34 4 52 13 52 27 0 10 -13 10 -49
0z"/>
<path d="M2315 560 c-4 -6 7 -10 25 -10 18 0 29 4 25 10 -3 6 -15 10 -25 10
-10 0 -22 -4 -25 -10z"/>
<path d="M2690 555 c0 -8 6 -15 14 -15 22 0 28 17 10 24 -22 9 -24 8 -24 -9z"/>
<path d="M2752 537 c-9 -11 -10 -17 -2 -22 15 -9 23 -1 18 21 -3 15 -4 16 -16
1z"/>
<path d="M2817 509 c-10 -6 -52 -11 -95 -11 -44 -1 -80 -5 -84 -12 -4 -6 -46
-11 -107 -11 -73 0 -101 -3 -101 -12 0 -9 -7 -10 -26 -3 -48 19 -60 -7 -15
-33 37 -22 53 -22 49 1 -3 15 12 18 135 26 75 5 137 13 137 17 0 5 11 4 24 0
23 -9 81 -1 105 14 7 4 18 0 24 -8 14 -18 57 -32 57 -19 0 5 -8 12 -17 16 -20
6 -55 28 -63 38 -3 3 -13 2 -23 -3z"/>
<path d="M2880 433 c-74 -9 -53 -23 33 -23 71 0 87 3 87 15 0 15 -36 18 -120
8z"/>
<path d="M2464 409 c-9 -15 10 -25 64 -33 51 -7 63 -2 41 18 -19 18 -96 29
-105 15z"/>
<path d="M2743 381 c-29 -8 -53 -19 -53 -22 0 -4 16 -10 35 -13 19 -3 51 -9
70 -12 27 -5 35 -3 35 9 0 11 -6 13 -21 10 -19 -5 -21 -3 -15 20 3 15 5 26 4
26 -2 -1 -27 -9 -55 -18z"/>
<path d="M2614 371 c7 -10 31 -9 42 2 4 4 -5 7 -20 7 -15 0 -25 -4 -22 -9z"/>
<path d="M2873 364 c4 -4 29 -15 57 -24 40 -14 52 -14 61 -4 8 9 5 15 -10 23
-21 12 -119 15 -108 5z"/>
<path d="M2630 350 c0 -5 5 -10 11 -10 5 0 7 5 4 10 -3 6 -8 10 -11 10 -2 0
-4 -4 -4 -10z"/>
<path d="M2875 331 c-20 -4 -26 -9 -18 -14 11 -7 53 7 53 18 0 3 -1 4 -2 4 -2
-1 -16 -4 -33 -8z"/>
<path d="M2605 300 c3 -6 19 -10 35 -10 16 0 30 -7 34 -16 3 -8 10 -13 14 -10
4 3 25 1 45 -4 53 -11 50 16 -3 30 -59 16 -132 22 -125 10z"/>
<path d="M2850 265 c-10 -12 -9 -16 4 -21 22 -8 52 16 34 27 -18 12 -24 11
-38 -6z"/>
<path d="M2780 255 c0 -9 5 -15 11 -13 6 2 11 8 11 13 0 5 -5 11 -11 13 -6 2
-11 -4 -11 -13z"/>
<path d="M2948 253 c7 -3 16 -2 19 1 4 3 -2 6 -13 5 -11 0 -14 -3 -6 -6z"/>
<path d="M2440 246 c0 -10 58 -36 80 -36 22 0 27 -19 8 -38 -7 -7 -8 -12 -2
-12 5 0 14 8 21 19 8 13 19 17 37 14 27 -6 46 -23 25 -23 -8 0 -8 -4 1 -15 11
-14 14 -13 25 1 9 14 31 18 101 19 49 1 117 6 151 10 53 6 64 5 69 -9 9 -23
44 -21 44 3 0 14 -10 20 -37 25 -58 9 -161 7 -168 -4 -10 -17 -215 11 -215 30
0 4 -6 7 -12 7 -7 0 -39 3 -70 7 -32 4 -58 5 -58 2z"/>
<path d="M2397 193 c4 -10 13 -29 20 -43 17 -32 18 -2 1 35 -13 28 -31 35 -21
8z"/>
<path d="M2710 140 c0 -17 10 -19 130 -19 109 -1 130 1 130 14 0 12 -15 15
-67 16 -38 1 -96 3 -130 5 -56 2 -63 0 -63 -16z"/>
<path d="M2515 129 c-9 -13 28 -49 50 -49 8 0 15 9 15 20 0 11 -3 19 -7 18 -5
-1 -18 3 -30 10 -15 8 -24 9 -28 1z"/>
<path d="M2453 74 c0 -7 9 -16 19 -20 10 -3 16 -10 12 -15 -3 -6 0 -16 6 -24
14 -17 45 -21 35 -5 -4 6 -11 8 -16 5 -5 -4 -9 4 -9 17 0 27 -9 42 -31 50 -9
4 -16 1 -16 -8z"/>
<path d="M2980 80 c-13 -8 -12 -10 3 -10 9 0 17 5 17 10 0 12 -1 12 -20 0z"/>
<path d="M1915 70 c-3 -4 7 -11 21 -14 35 -9 39 -4 8 11 -13 6 -26 8 -29 3z"/>
<path d="M2610 73 c-86 -14 -40 -31 110 -40 58 -3 111 -10 118 -16 9 -7 11 -6
7 5 -3 8 -25 21 -48 28 -23 7 -55 16 -71 21 -29 9 -70 10 -116 2z m100 -13 c0
-5 -2 -10 -4 -10 -2 0 -12 -3 -22 -7 -16 -6 -17 -5 -4 10 17 19 30 22 30 7z"/>
<path d="M2900 60 c0 -5 12 -10 26 -10 14 0 23 4 19 10 -3 6 -15 10 -26 10
-10 0 -19 -4 -19 -10z"/>
<path d="M2896 8 c3 -4 26 -8 51 -8 26 0 43 3 40 6 -10 10 -97 12 -91 2z"/>
<path d="M2563 3 c9 -2 23 -2 30 0 6 3 -1 5 -18 5 -16 0 -22 -2 -12 -5z"/>
</g>
</svg>
